<?xml version='1.0' encoding='UTF-8' standalone='no'?>
<!-- Created with Fritzing (http://www.fritzing.org/) -->
<svg xmlns:svg='http://www.w3.org/2000/svg' xmlns='http://www.w3.org/2000/svg' version='1.2' baseProfile='tiny' x='0in' y='0in' width='2.30267in' height='1.84754in' viewBox='0 0 165.792 133.023' >
<g partID='77040'><g transform='translate(0,25.0229)' ><g  id="breadboardbreadboard">
 <g  id="background">
  <rect  width="158.64" fill="#D9D9D9" height="108"/>
 </g>
 <rect  width="158.64" y="50.375" fill="#CCC9C9" height="7.25"/>
 <g  id="text">
  <g transform="matrix(1, 0, 0, 1, 10.0596, 9.3945)">
   <text  fill="#B3B0B0" font-family="'DroidSans'" font-size="4.6036">1</text>
  </g>
  <g transform="matrix(1, 0, 0, 1, 38.7144, 9.3945)">
   <text  fill="#B3B0B0" font-family="'DroidSans'" font-size="4.6036">5</text>
  </g>
  <g transform="matrix(1, 0, 0, 1, 73.1099, 9.3945)">
   <text  fill="#B3B0B0" font-family="'DroidSans'" font-size="4.6036">10</text>
  </g>
  <g transform="matrix(1, 0, 0, 1, 109.119, 9.3945)">
   <text  fill="#B3B0B0" font-family="'DroidSans'" font-size="4.6036">15</text>
  </g>
  <g transform="matrix(1, 0, 0, 1, 145.296, 9.3945)">
   <text  fill="#B3B0B0" font-family="'DroidSans'" font-size="4.6036">20</text>
  </g>
  <g transform="matrix(1, 0, 0, 1, 10.0596, 100.795)">
   <text  fill="#B3B0B0" font-family="'DroidSans'" font-size="4.6036">1</text>
  </g>
  <g transform="matrix(1, 0, 0, 1, 38.7144, 100.795)">
   <text  fill="#B3B0B0" font-family="'DroidSans'" font-size="4.6036">5</text>
  </g>
  <g transform="matrix(1, 0, 0, 1, 73.1099, 100.795)">
   <text  fill="#B3B0B0" font-family="'DroidSans'" font-size="4.6036">10</text>
  </g>
  <g transform="matrix(1, 0, 0, 1, 109.119, 100.795)">
   <text  fill="#B3B0B0" font-family="'DroidSans'" font-size="4.6036">15</text>
  </g>
  <g transform="matrix(1, 0, 0, 1, 145.296, 100.795)">
   <text  fill="#B3B0B0" font-family="'DroidSans'" font-size="4.6036">20</text>
  </g>
  <g transform="matrix(1, 0, 0, 1, 3.2612, 15.6143)">
   <text  fill="#B3B0B0" font-family="'DroidSans'" font-size="4.6036">A</text>
  </g>
  <g transform="matrix(1, 0, 0, 1, 3.2612, 22.8672)">
   <text  fill="#B3B0B0" font-family="'DroidSans'" font-size="4.6036">B</text>
  </g>
  <g transform="matrix(1, 0, 0, 1, 3.3052, 30.1187)">
   <text  fill="#B3B0B0" font-family="'DroidSans'" font-size="4.6036">C</text>
  </g>
  <g transform="matrix(1, 0, 0, 1, 3.2197, 37.3696)">
   <text  fill="#B3B0B0" font-family="'DroidSans'" font-size="4.6036">D</text>
  </g>
  <g transform="matrix(1, 0, 0, 1, 3.4341, 44.6211)">
   <text  fill="#B3B0B0" font-family="'DroidSans'" font-size="4.6036">E</text>
  </g>
  <g transform="matrix(1, 0, 0, 1, 3.4756, 66.377)">
   <text  fill="#B3B0B0" font-family="'DroidSans'" font-size="4.6036">F</text>
  </g>
  <g transform="matrix(1, 0, 0, 1, 3.2612, 73.627)">
   <text  fill="#B3B0B0" font-family="'DroidSans'" font-size="4.6036">G</text>
  </g>
  <g transform="matrix(1, 0, 0, 1, 3.2612, 80.8789)">
   <text  fill="#B3B0B0" font-family="'DroidSans'" font-size="4.6036">H</text>
  </g>
  <g transform="matrix(1, 0, 0, 1, 3.9473, 88.1318)">
   <text  fill="#B3B0B0" font-family="'DroidSans'" font-size="4.6036">I</text>
  </g>
  <g transform="matrix(1, 0, 0, 1, 3.4756, 95.3828)">
   <text  fill="#B3B0B0" font-family="'DroidSans'" font-size="4.6036">J</text>
  </g>
 </g>
 <g  id="sockets">
  <g  id="A1pin">
   <path  d="M8.526,14.4c0,-1.322,1.072,-2.394,2.394,-2.394s2.394,1.072,2.394,2.394" fill="#BFBFBF"/>
   <path  d="M13.313,14.4c0,1.322,-1.072,2.394,-2.394,2.394S8.526,15.722,8.526,14.4" fill="#E6E6E6"/>
   <circle  fill="#383838" r="1.197" cx="10.92" cy="14.4"/>
  </g>
  <g  id="B1pin">
   <path  d="M8.526,21.6c0,-1.322,1.072,-2.394,2.394,-2.394s2.394,1.072,2.394,2.394" fill="#BFBFBF"/>
   <path  d="M13.313,21.6c0,1.322,-1.072,2.394,-2.394,2.394S8.526,22.922,8.526,21.6l0,0" fill="#E6E6E6"/>
   <circle  fill="#383838" r="1.197" cx="10.92" cy="21.6"/>
  </g>
  <g  id="C1pin">
   <path  d="M8.526,28.8c0,-1.322,1.072,-2.394,2.394,-2.394s2.394,1.072,2.394,2.394" fill="#BFBFBF"/>
   <path  d="M13.313,28.8c0,1.322,-1.072,2.394,-2.394,2.394S8.526,30.122,8.526,28.8" fill="#E6E6E6"/>
   <circle  fill="#383838" r="1.197" cx="10.92" cy="28.8"/>
  </g>
  <g  id="D1pin">
   <path  d="M8.526,36c0,-1.322,1.072,-2.394,2.394,-2.394s2.394,1.072,2.394,2.394" fill="#BFBFBF"/>
   <path  d="M13.313,36c0,1.322,-1.072,2.394,-2.394,2.394S8.526,37.322,8.526,36l0,0" fill="#E6E6E6"/>
   <circle  fill="#383838" r="1.197" cx="10.92" cy="36"/>
  </g>
  <g  id="E1pin">
   <path  d="M8.526,43.2c0,-1.322,1.072,-2.394,2.394,-2.394s2.394,1.071,2.394,2.394" fill="#BFBFBF"/>
   <path  d="M13.313,43.2c0,1.322,-1.072,2.394,-2.394,2.394S8.526,44.522,8.526,43.2l0,0" fill="#E6E6E6"/>
   <circle  fill="#383838" r="1.197" cx="10.92" cy="43.2"/>
  </g>
  <g  id="A2pin">
   <path  d="M15.727,14.4c0,-1.322,1.071,-2.394,2.394,-2.394c1.322,0,2.394,1.072,2.394,2.394" fill="#BFBFBF"/>
   <path  d="M20.514,14.4c0,1.322,-1.07,2.395,-2.393,2.395c-1.322,0.001,-2.394,-1.07,-2.395,-2.392c0,-0.001,0,-0.002,0,-0.003" fill="#E6E6E6"/>
   <circle  fill="#383838" r="1.197" cx="18.12" cy="14.4"/>
  </g>
  <g  id="B2pin">
   <path  d="M15.727,21.6c0,-1.322,1.071,-2.394,2.394,-2.394c1.322,0,2.394,1.072,2.394,2.394" fill="#BFBFBF"/>
   <path  d="M20.514,21.6c0,1.322,-1.07,2.394,-2.393,2.395c-1.322,0,-2.394,-1.07,-2.395,-2.393c0,-0.001,0,-0.001,0,-0.002" fill="#E6E6E6"/>
   <circle  fill="#383838" r="1.197" cx="18.12" cy="21.6"/>
  </g>
  <g  id="C2pin">
   <path  d="M15.727,28.8c0,-1.322,1.071,-2.394,2.394,-2.394c1.322,0,2.394,1.072,2.394,2.394" fill="#BFBFBF"/>
   <path  d="M20.514,28.8c0,1.322,-1.07,2.395,-2.393,2.395c-1.322,0.001,-2.394,-1.07,-2.395,-2.392c0,-0.001,0,-0.002,0,-0.003" fill="#E6E6E6"/>
   <circle  fill="#383838" r="1.197" cx="18.12" cy="28.8"/>
  </g>
  <g  id="D2pin">
   <path  d="M15.727,36c0,-1.322,1.071,-2.394,2.394,-2.394c1.322,0,2.394,1.072,2.394,2.394" fill="#BFBFBF"/>
   <path  d="M20.514,36c0,1.322,-1.07,2.394,-2.393,2.395c-1.322,0,-2.394,-1.07,-2.395,-2.392c0,-0.001,0,-0.002,0,-0.003" fill="#E6E6E6"/>
   <circle  fill="#383838" r="1.197" cx="18.12" cy="36"/>
  </g>
  <g  id="E2pin">
   <path  d="M15.727,43.2c0,-1.322,1.071,-2.394,2.394,-2.394c1.322,0,2.394,1.071,2.394,2.394" fill="#BFBFBF"/>
   <path  d="M20.514,43.2c0,1.322,-1.07,2.394,-2.393,2.395c-1.322,0.001,-2.394,-1.07,-2.395,-2.392c0,-0.001,0,-0.002,0,-0.002" fill="#E6E6E6"/>
   <circle  fill="#383838" r="1.197" cx="18.12" cy="43.2"/>
  </g>
  <g  id="A3pin">
   <path  d="M22.926,14.4c0,-1.322,1.072,-2.394,2.394,-2.394c1.322,0,2.394,1.072,2.394,2.394" fill="#BFBFBF"/>
   <path  d="M27.713,14.4c0,1.322,-1.071,2.394,-2.394,2.394c-1.322,0,-2.394,-1.071,-2.394,-2.394l0,0" fill="#E6E6E6"/>
   <circle  fill="#383838" r="1.197" cx="25.32" cy="14.4"/>
  </g>
  <g  id="B3pin">
   <path  d="M22.926,21.6c0,-1.322,1.072,-2.394,2.394,-2.394c1.322,0,2.394,1.072,2.394,2.394" fill="#BFBFBF"/>
   <path  d="M27.713,21.6c0,1.322,-1.071,2.394,-2.394,2.394c-1.322,0,-2.394,-1.072,-2.394,-2.394" fill="#E6E6E6"/>
   <circle  fill="#383838" r="1.197" cx="25.32" cy="21.6"/>
  </g>
  <g  id="C3pin">
   <path  d="M22.926,28.8c0,-1.322,1.072,-2.394,2.394,-2.394c1.322,0,2.394,1.072,2.394,2.394" fill="#BFBFBF"/>
   <path  d="M27.713,28.8c0,1.322,-1.071,2.394,-2.394,2.394c-1.322,0,-2.394,-1.071,-2.394,-2.394l0,0" fill="#E6E6E6"/>
   <circle  fill="#383838" r="1.197" cx="25.32" cy="28.8"/>
  </g>
  <g  id="D3pin">
   <path  d="M22.926,36c0,-1.322,1.072,-2.394,2.394,-2.394c1.322,0,2.394,1.072,2.394,2.394" fill="#BFBFBF"/>
   <path  d="M27.713,36c0,1.322,-1.071,2.394,-2.394,2.394c-1.322,0,-2.394,-1.072,-2.394,-2.394" fill="#E6E6E6"/>
   <circle  fill="#383838" r="1.197" cx="25.32" cy="36"/>
  </g>
  <g  id="E3pin">
   <path  d="M22.926,43.2c0,-1.322,1.072,-2.394,2.394,-2.394c1.322,0,2.394,1.071,2.394,2.394" fill="#BFBFBF"/>
   <path  d="M27.713,43.2c0,1.322,-1.071,2.394,-2.394,2.394c-1.322,0,-2.394,-1.072,-2.394,-2.394" fill="#E6E6E6"/>
   <circle  fill="#383838" r="1.197" cx="25.32" cy="43.2"/>
  </g>
  <g  id="A4pin">
   <path  d="M30.126,14.4c0,-1.322,1.072,-2.394,2.394,-2.394s2.394,1.072,2.394,2.394" fill="#BFBFBF"/>
   <path  d="M34.914,14.4c0,1.322,-1.072,2.394,-2.394,2.394s-2.394,-1.071,-2.394,-2.394l0,0" fill="#E6E6E6"/>
   <circle  fill="#383838" r="1.197" cx="32.52" cy="14.4"/>
  </g>
  <g  id="B4pin">
   <path  d="M30.126,21.6c0,-1.322,1.072,-2.394,2.394,-2.394s2.394,1.072,2.394,2.394" fill="#BFBFBF"/>
   <path  d="M34.914,21.6c0,1.322,-1.072,2.394,-2.394,2.394s-2.394,-1.072,-2.394,-2.394" fill="#E6E6E6"/>
   <circle  fill="#383838" r="1.197" cx="32.52" cy="21.6"/>
  </g>
  <g  id="C4pin">
   <path  d="M30.126,28.8c0,-1.322,1.072,-2.394,2.394,-2.394s2.394,1.072,2.394,2.394" fill="#BFBFBF"/>
   <path  d="M34.914,28.8c0,1.322,-1.072,2.394,-2.394,2.394s-2.394,-1.071,-2.394,-2.394l0,0" fill="#E6E6E6"/>
   <circle  fill="#383838" r="1.197" cx="32.52" cy="28.8"/>
  </g>
  <g  id="D4pin">
   <path  d="M30.126,36c0,-1.322,1.072,-2.394,2.394,-2.394s2.394,1.072,2.394,2.394" fill="#BFBFBF"/>
   <path  d="M34.914,36c0,1.322,-1.072,2.394,-2.394,2.394S30.126,37.322,30.126,36" fill="#E6E6E6"/>
   <circle  fill="#383838" r="1.197" cx="32.52" cy="36"/>
  </g>
  <g  id="E4pin">
   <path  d="M30.126,43.2c0,-1.322,1.072,-2.394,2.394,-2.394s2.394,1.071,2.394,2.394" fill="#BFBFBF"/>
   <path  d="M34.914,43.2c0,1.322,-1.072,2.394,-2.394,2.394s-2.394,-1.072,-2.394,-2.394" fill="#E6E6E6"/>
   <circle  fill="#383838" r="1.197" cx="32.52" cy="43.2"/>
  </g>
  <g  id="A5pin">
   <path  d="M37.326,14.4c0,-1.322,1.072,-2.394,2.394,-2.394c1.322,0,2.394,1.072,2.394,2.394" fill="#BFBFBF"/>
   <path  d="M42.114,14.4c0,1.322,-1.072,2.394,-2.394,2.394c-1.322,0,-2.394,-1.071,-2.394,-2.394l0,0" fill="#E6E6E6"/>
   <circle  fill="#383838" r="1.197" cx="39.72" cy="14.4"/>
  </g>
  <g  id="B5pin">
   <path  d="M37.326,21.6c0,-1.322,1.072,-2.394,2.394,-2.394c1.322,0,2.394,1.072,2.394,2.394" fill="#BFBFBF"/>
   <path  d="M42.114,21.6c0,1.322,-1.072,2.394,-2.394,2.394c-1.322,0,-2.394,-1.072,-2.394,-2.394" fill="#E6E6E6"/>
   <circle  fill="#383838" r="1.197" cx="39.72" cy="21.6"/>
  </g>
  <g  id="C5pin">
   <path  d="M37.326,28.8c0,-1.322,1.072,-2.394,2.394,-2.394c1.322,0,2.394,1.072,2.394,2.394" fill="#BFBFBF"/>
   <path  d="M42.114,28.8c0,1.322,-1.072,2.394,-2.394,2.394c-1.322,0,-2.394,-1.071,-2.394,-2.394l0,0" fill="#E6E6E6"/>
   <circle  fill="#383838" r="1.197" cx="39.72" cy="28.8"/>
  </g>
  <g  id="D5pin">
   <path  d="M37.326,36c0,-1.322,1.072,-2.394,2.394,-2.394c1.322,0,2.394,1.072,2.394,2.394" fill="#BFBFBF"/>
   <path  d="M42.114,36c0,1.322,-1.072,2.394,-2.394,2.394c-1.322,0,-2.394,-1.072,-2.394,-2.394" fill="#E6E6E6"/>
   <circle  fill="#383838" r="1.197" cx="39.72" cy="36"/>
  </g>
  <g  id="E5pin">
   <path  d="M37.326,43.2c0,-1.322,1.072,-2.394,2.394,-2.394c1.322,0,2.394,1.071,2.394,2.394" fill="#BFBFBF"/>
   <path  d="M42.114,43.2c0,1.322,-1.072,2.394,-2.394,2.394c-1.322,0,-2.394,-1.072,-2.394,-2.394" fill="#E6E6E6"/>
   <circle  fill="#383838" r="1.197" cx="39.72" cy="43.2"/>
  </g>
  <g  id="A6pin">
   <path  d="M44.526,14.4c0,-1.322,1.072,-2.394,2.394,-2.394s2.394,1.072,2.394,2.394" fill="#BFBFBF"/>
   <path  d="M49.313,14.4c0,1.322,-1.072,2.394,-2.394,2.394s-2.394,-1.071,-2.394,-2.394l0,0" fill="#E6E6E6"/>
   <circle  fill="#383838" r="1.197" cx="46.92" cy="14.4"/>
  </g>
  <g  id="B6pin">
   <path  d="M44.526,21.6c0,-1.322,1.072,-2.394,2.394,-2.394s2.394,1.072,2.394,2.394" fill="#BFBFBF"/>
   <path  d="M49.313,21.6c0,1.322,-1.072,2.394,-2.394,2.394s-2.394,-1.072,-2.394,-2.394" fill="#E6E6E6"/>
   <circle  fill="#383838" r="1.197" cx="46.92" cy="21.6"/>
  </g>
  <g  id="C6pin">
   <path  d="M44.526,28.8c0,-1.322,1.072,-2.394,2.394,-2.394s2.394,1.072,2.394,2.394" fill="#BFBFBF"/>
   <path  d="M49.313,28.8c0,1.322,-1.072,2.394,-2.394,2.394s-2.394,-1.071,-2.394,-2.394l0,0" fill="#E6E6E6"/>
   <circle  fill="#383838" r="1.197" cx="46.92" cy="28.8"/>
  </g>
  <g  id="D6pin">
   <path  d="M44.526,36c0,-1.322,1.072,-2.394,2.394,-2.394s2.394,1.072,2.394,2.394" fill="#BFBFBF"/>
   <path  d="M49.313,36c0,1.322,-1.072,2.394,-2.394,2.394S44.526,37.322,44.526,36" fill="#E6E6E6"/>
   <circle  fill="#383838" r="1.197" cx="46.92" cy="36"/>
  </g>
  <g  id="E6pin">
   <path  d="M44.526,43.2c0,-1.322,1.072,-2.394,2.394,-2.394s2.394,1.071,2.394,2.394" fill="#BFBFBF"/>
   <path  d="M49.313,43.2c0,1.322,-1.072,2.394,-2.394,2.394s-2.394,-1.072,-2.394,-2.394" fill="#E6E6E6"/>
   <circle  fill="#383838" r="1.197" cx="46.92" cy="43.2"/>
  </g>
  <g  id="A7pin">
   <path  d="M51.727,14.4c0,-1.322,1.071,-2.394,2.394,-2.394c1.322,0,2.394,1.072,2.394,2.394" fill="#BFBFBF"/>
   <path  d="M56.514,14.4c0,1.322,-1.072,2.394,-2.394,2.394c-1.322,0,-2.394,-1.071,-2.394,-2.394l0,0" fill="#E6E6E6"/>
   <circle  fill="#383838" r="1.197" cx="54.12" cy="14.4"/>
  </g>
  <g  id="B7pin">
   <path  d="M51.727,21.6c0,-1.322,1.071,-2.394,2.394,-2.394c1.322,0,2.394,1.072,2.394,2.394" fill="#BFBFBF"/>
   <path  d="M56.514,21.6c0,1.322,-1.072,2.394,-2.394,2.394c-1.322,0,-2.394,-1.072,-2.394,-2.394" fill="#E6E6E6"/>
   <circle  fill="#383838" r="1.197" cx="54.12" cy="21.6"/>
  </g>
  <g  id="C7pin">
   <path  d="M51.727,28.8c0,-1.322,1.071,-2.394,2.394,-2.394c1.322,0,2.394,1.072,2.394,2.394" fill="#BFBFBF"/>
   <path  d="M56.514,28.8c0,1.322,-1.072,2.394,-2.394,2.394c-1.322,0,-2.394,-1.071,-2.394,-2.394l0,0" fill="#E6E6E6"/>
   <circle  fill="#383838" r="1.197" cx="54.12" cy="28.8"/>
  </g>
  <g  id="D7pin">
   <path  d="M51.727,36c0,-1.322,1.071,-2.394,2.394,-2.394c1.322,0,2.394,1.072,2.394,2.394" fill="#BFBFBF"/>
   <path  d="M56.514,36c0,1.322,-1.072,2.394,-2.394,2.394c-1.322,0,-2.394,-1.072,-2.394,-2.394" fill="#E6E6E6"/>
   <circle  fill="#383838" r="1.197" cx="54.12" cy="36"/>
  </g>
  <g  id="E7pin">
   <path  d="M51.727,43.2c0,-1.322,1.071,-2.394,2.394,-2.394c1.322,0,2.394,1.071,2.394,2.394" fill="#BFBFBF"/>
   <path  d="M56.514,43.2c0,1.322,-1.072,2.394,-2.394,2.394c-1.322,0,-2.394,-1.072,-2.394,-2.394" fill="#E6E6E6"/>
   <circle  fill="#383838" r="1.197" cx="54.12" cy="43.2"/>
  </g>
  <g  id="A8pin">
   <path  d="M58.926,14.4c0,-1.322,1.072,-2.394,2.394,-2.394c1.322,0,2.394,1.072,2.394,2.394" fill="#BFBFBF"/>
   <path  d="M63.713,14.4c0,1.322,-1.071,2.394,-2.394,2.394c-1.322,0,-2.394,-1.071,-2.394,-2.394l0,0" fill="#E6E6E6"/>
   <circle  fill="#383838" r="1.197" cx="61.32" cy="14.4"/>
  </g>
  <g  id="B8pin">
   <path  d="M58.926,21.6c0,-1.322,1.072,-2.394,2.394,-2.394c1.322,0,2.394,1.072,2.394,2.394" fill="#BFBFBF"/>
   <path  d="M63.713,21.6c0,1.322,-1.071,2.394,-2.394,2.394c-1.322,0,-2.394,-1.072,-2.394,-2.394" fill="#E6E6E6"/>
   <circle  fill="#383838" r="1.197" cx="61.32" cy="21.6"/>
  </g>
  <g  id="C8pin">
   <path  d="M58.926,28.8c0,-1.322,1.072,-2.394,2.394,-2.394c1.322,0,2.394,1.072,2.394,2.394" fill="#BFBFBF"/>
   <path  d="M63.713,28.8c0,1.322,-1.071,2.394,-2.394,2.394c-1.322,0,-2.394,-1.071,-2.394,-2.394l0,0" fill="#E6E6E6"/>
   <circle  fill="#383838" r="1.197" cx="61.32" cy="28.8"/>
  </g>
  <g  id="D8pin">
   <path  d="M58.926,36c0,-1.322,1.072,-2.394,2.394,-2.394c1.322,0,2.394,1.072,2.394,2.394" fill="#BFBFBF"/>
   <path  d="M63.713,36c0,1.322,-1.071,2.394,-2.394,2.394c-1.322,0,-2.394,-1.072,-2.394,-2.394" fill="#E6E6E6"/>
   <circle  fill="#383838" r="1.197" cx="61.32" cy="36"/>
  </g>
  <g  id="E8pin">
   <path  d="M58.926,43.2c0,-1.322,1.072,-2.394,2.394,-2.394c1.322,0,2.394,1.071,2.394,2.394" fill="#BFBFBF"/>
   <path  d="M63.713,43.2c0,1.322,-1.071,2.394,-2.394,2.394c-1.322,0,-2.394,-1.072,-2.394,-2.394" fill="#E6E6E6"/>
   <circle  fill="#383838" r="1.197" cx="61.32" cy="43.2"/>
  </g>
  <g  id="A9pin">
   <path  d="M66.126,14.4c0,-1.322,1.071,-2.394,2.394,-2.394c1.322,0,2.394,1.072,2.394,2.394" fill="#BFBFBF"/>
   <path  d="M70.914,14.4c0,1.322,-1.072,2.394,-2.394,2.394c-1.322,0,-2.394,-1.071,-2.394,-2.394l0,0" fill="#E6E6E6"/>
   <circle  fill="#383838" r="1.197" cx="68.52" cy="14.4"/>
  </g>
  <g  id="B9pin">
   <path  d="M66.126,21.6c0,-1.322,1.071,-2.394,2.394,-2.394c1.322,0,2.394,1.072,2.394,2.394" fill="#BFBFBF"/>
   <path  d="M70.914,21.6c0,1.322,-1.072,2.394,-2.394,2.394c-1.322,0,-2.394,-1.072,-2.394,-2.394" fill="#E6E6E6"/>
   <circle  fill="#383838" r="1.197" cx="68.52" cy="21.6"/>
  </g>
  <g  id="C9pin">
   <path  d="M66.126,28.8c0,-1.322,1.071,-2.394,2.394,-2.394c1.322,0,2.394,1.072,2.394,2.394" fill="#BFBFBF"/>
   <path  d="M70.914,28.8c0,1.322,-1.072,2.394,-2.394,2.394c-1.322,0,-2.394,-1.071,-2.394,-2.394l0,0" fill="#E6E6E6"/>
   <circle  fill="#383838" r="1.197" cx="68.52" cy="28.8"/>
  </g>
  <g  id="D9pin">
   <path  d="M66.126,36c0,-1.322,1.071,-2.394,2.394,-2.394c1.322,0,2.394,1.072,2.394,2.394" fill="#BFBFBF"/>
   <path  d="M70.914,36c0,1.322,-1.072,2.394,-2.394,2.394c-1.322,0,-2.394,-1.072,-2.394,-2.394" fill="#E6E6E6"/>
   <circle  fill="#383838" r="1.197" cx="68.52" cy="36"/>
  </g>
  <g  id="E9pin">
   <path  d="M66.126,43.2c0,-1.322,1.071,-2.394,2.394,-2.394c1.322,0,2.394,1.071,2.394,2.394" fill="#BFBFBF"/>
   <path  d="M70.914,43.2c0,1.322,-1.072,2.394,-2.394,2.394c-1.322,0,-2.394,-1.072,-2.394,-2.394" fill="#E6E6E6"/>
   <circle  fill="#383838" r="1.197" cx="68.52" cy="43.2"/>
  </g>
  <g  id="A10pin">
   <path  d="M73.326,14.4c0,-1.322,1.072,-2.394,2.394,-2.394c1.322,0,2.394,1.072,2.394,2.394" fill="#BFBFBF"/>
   <path  d="M78.113,14.4c0,1.322,-1.071,2.394,-2.394,2.394c-1.322,0,-2.394,-1.071,-2.394,-2.394l0,0" fill="#E6E6E6"/>
   <circle  fill="#383838" r="1.197" cx="75.72" cy="14.4"/>
  </g>
  <g  id="B10pin">
   <path  d="M73.326,21.6c0,-1.322,1.072,-2.394,2.394,-2.394c1.322,0,2.394,1.072,2.394,2.394" fill="#BFBFBF"/>
   <path  d="M78.113,21.6c0,1.322,-1.071,2.394,-2.394,2.394c-1.322,0,-2.394,-1.072,-2.394,-2.394" fill="#E6E6E6"/>
   <circle  fill="#383838" r="1.197" cx="75.72" cy="21.6"/>
  </g>
  <g  id="C10pin">
   <path  d="M73.326,28.8c0,-1.322,1.072,-2.394,2.394,-2.394c1.322,0,2.394,1.072,2.394,2.394" fill="#BFBFBF"/>
   <path  d="M78.113,28.8c0,1.322,-1.071,2.394,-2.394,2.394c-1.322,0,-2.394,-1.071,-2.394,-2.394l0,0" fill="#E6E6E6"/>
   <circle  fill="#383838" r="1.197" cx="75.72" cy="28.8"/>
  </g>
  <g  id="D10pin">
   <path  d="M73.326,36c0,-1.322,1.072,-2.394,2.394,-2.394c1.322,0,2.394,1.072,2.394,2.394" fill="#BFBFBF"/>
   <path  d="M78.113,36c0,1.322,-1.071,2.394,-2.394,2.394c-1.322,0,-2.394,-1.072,-2.394,-2.394" fill="#E6E6E6"/>
   <circle  fill="#383838" r="1.197" cx="75.72" cy="36"/>
  </g>
  <g  id="E10pin">
   <path  d="M73.326,43.2c0,-1.322,1.072,-2.394,2.394,-2.394c1.322,0,2.394,1.071,2.394,2.394" fill="#BFBFBF"/>
   <path  d="M78.113,43.2c0,1.322,-1.071,2.394,-2.394,2.394c-1.322,0,-2.394,-1.072,-2.394,-2.394" fill="#E6E6E6"/>
   <circle  fill="#383838" r="1.197" cx="75.72" cy="43.2"/>
  </g>
  <g  id="A11pin">
   <path  d="M80.527,14.4c0,-1.322,1.071,-2.394,2.393,-2.394c1.322,0,2.395,1.072,2.395,2.394" fill="#BFBFBF"/>
   <path  d="M85.314,14.4c0,1.322,-1.072,2.394,-2.395,2.394c-1.321,0,-2.393,-1.071,-2.393,-2.394l0,0" fill="#E6E6E6"/>
   <circle  fill="#383838" r="1.197" cx="82.919" cy="14.4"/>
  </g>
  <g  id="B11pin">
   <path  d="M80.527,21.6c0,-1.322,1.071,-2.394,2.393,-2.394c1.322,0,2.395,1.072,2.395,2.394" fill="#BFBFBF"/>
   <path  d="M85.314,21.6c0,1.322,-1.072,2.394,-2.395,2.394c-1.321,0,-2.393,-1.072,-2.393,-2.394" fill="#E6E6E6"/>
   <circle  fill="#383838" r="1.197" cx="82.919" cy="21.6"/>
  </g>
  <g  id="C11pin">
   <path  d="M80.527,28.8c0,-1.322,1.071,-2.394,2.393,-2.394c1.322,0,2.395,1.072,2.395,2.394" fill="#BFBFBF"/>
   <path  d="M85.314,28.8c0,1.322,-1.072,2.394,-2.395,2.394c-1.321,0,-2.393,-1.071,-2.393,-2.394l0,0" fill="#E6E6E6"/>
   <circle  fill="#383838" r="1.197" cx="82.919" cy="28.8"/>
  </g>
  <g  id="D11pin">
   <path  d="M80.527,36c0,-1.322,1.071,-2.394,2.393,-2.394c1.322,0,2.395,1.072,2.395,2.394" fill="#BFBFBF"/>
   <path  d="M85.314,36c0,1.322,-1.072,2.394,-2.395,2.394c-1.321,0,-2.393,-1.072,-2.393,-2.394" fill="#E6E6E6"/>
   <circle  fill="#383838" r="1.197" cx="82.919" cy="36"/>
  </g>
  <g  id="E11pin">
   <path  d="M80.527,43.2c0,-1.322,1.071,-2.394,2.393,-2.394c1.322,0,2.395,1.071,2.395,2.394" fill="#BFBFBF"/>
   <path  d="M85.314,43.2c0,1.322,-1.072,2.394,-2.395,2.394c-1.321,0,-2.393,-1.072,-2.393,-2.394" fill="#E6E6E6"/>
   <circle  fill="#383838" r="1.197" cx="82.919" cy="43.2"/>
  </g>
  <g  id="A12pin">
   <path  d="M87.726,14.4c0,-1.322,1.072,-2.394,2.394,-2.394c1.322,0,2.394,1.072,2.394,2.394" fill="#BFBFBF"/>
   <path  d="M92.513,14.4c0,1.322,-1.071,2.394,-2.394,2.394c-1.321,0,-2.394,-1.071,-2.394,-2.394l0,0" fill="#E6E6E6"/>
   <circle  fill="#383838" r="1.197" cx="90.12" cy="14.4"/>
  </g>
  <g  id="B12pin">
   <path  d="M87.726,21.6c0,-1.322,1.072,-2.394,2.394,-2.394c1.322,0,2.394,1.072,2.394,2.394" fill="#BFBFBF"/>
   <path  d="M92.513,21.6c0,1.322,-1.071,2.394,-2.394,2.394c-1.321,0,-2.394,-1.072,-2.394,-2.394" fill="#E6E6E6"/>
   <circle  fill="#383838" r="1.197" cx="90.12" cy="21.6"/>
  </g>
  <g  id="C12pin">
   <path  d="M87.726,28.8c0,-1.322,1.072,-2.394,2.394,-2.394c1.322,0,2.394,1.072,2.394,2.394" fill="#BFBFBF"/>
   <path  d="M92.513,28.8c0,1.322,-1.071,2.394,-2.394,2.394c-1.321,0,-2.394,-1.071,-2.394,-2.394l0,0" fill="#E6E6E6"/>
   <circle  fill="#383838" r="1.197" cx="90.12" cy="28.8"/>
  </g>
  <g  id="D12pin">
   <path  d="M87.726,36c0,-1.322,1.072,-2.394,2.394,-2.394c1.322,0,2.394,1.072,2.394,2.394" fill="#BFBFBF"/>
   <path  d="M92.513,36c0,1.322,-1.071,2.394,-2.394,2.394c-1.321,0,-2.394,-1.072,-2.394,-2.394" fill="#E6E6E6"/>
   <circle  fill="#383838" r="1.197" cx="90.12" cy="36"/>
  </g>
  <g  id="E12pin">
   <path  d="M87.726,43.2c0,-1.322,1.072,-2.394,2.394,-2.394c1.322,0,2.394,1.071,2.394,2.394" fill="#BFBFBF"/>
   <path  d="M92.513,43.2c0,1.322,-1.071,2.394,-2.394,2.394c-1.321,0,-2.394,-1.072,-2.394,-2.394" fill="#E6E6E6"/>
   <circle  fill="#383838" r="1.197" cx="90.12" cy="43.2"/>
  </g>
  <g  id="A13pin">
   <path  d="M94.926,14.4c0,-1.322,1.071,-2.394,2.394,-2.394s2.394,1.072,2.394,2.394" fill="#BFBFBF"/>
   <path  d="M99.713,14.4c0,1.322,-1.071,2.394,-2.394,2.394s-2.394,-1.071,-2.394,-2.394l0,0" fill="#E6E6E6"/>
   <circle  fill="#383838" r="1.197" cx="97.32" cy="14.4"/>
  </g>
  <g  id="B13pin">
   <path  d="M94.926,21.6c0,-1.322,1.071,-2.394,2.394,-2.394s2.394,1.072,2.394,2.394" fill="#BFBFBF"/>
   <path  d="M99.713,21.6c0,1.322,-1.071,2.394,-2.394,2.394s-2.394,-1.072,-2.394,-2.394" fill="#E6E6E6"/>
   <circle  fill="#383838" r="1.197" cx="97.32" cy="21.6"/>
  </g>
  <g  id="C13pin">
   <path  d="M94.926,28.8c0,-1.322,1.071,-2.394,2.394,-2.394s2.394,1.072,2.394,2.394" fill="#BFBFBF"/>
   <path  d="M99.713,28.8c0,1.322,-1.071,2.394,-2.394,2.394s-2.394,-1.071,-2.394,-2.394l0,0" fill="#E6E6E6"/>
   <circle  fill="#383838" r="1.197" cx="97.32" cy="28.8"/>
  </g>
  <g  id="D13pin">
   <path  d="M94.926,36c0,-1.322,1.071,-2.394,2.394,-2.394s2.394,1.072,2.394,2.394" fill="#BFBFBF"/>
   <path  d="M99.713,36c0,1.322,-1.071,2.394,-2.394,2.394S94.926,37.322,94.926,36" fill="#E6E6E6"/>
   <circle  fill="#383838" r="1.197" cx="97.32" cy="36"/>
  </g>
  <g  id="E13pin">
   <path  d="M94.926,43.2c0,-1.322,1.071,-2.394,2.394,-2.394s2.394,1.071,2.394,2.394" fill="#BFBFBF"/>
   <path  d="M99.713,43.2c0,1.322,-1.071,2.394,-2.394,2.394s-2.394,-1.072,-2.394,-2.394" fill="#E6E6E6"/>
   <circle  fill="#383838" r="1.197" cx="97.32" cy="43.2"/>
  </g>
  <g  id="A14pin">
   <path  d="M102.126,14.4c0,-1.322,1.071,-2.394,2.394,-2.394c1.321,0,2.394,1.072,2.394,2.394" fill="#BFBFBF"/>
   <path  d="M106.914,14.4c0,1.322,-1.072,2.394,-2.394,2.394c-1.322,0,-2.394,-1.071,-2.394,-2.394l0,0" fill="#E6E6E6"/>
   <circle  fill="#383838" r="1.197" cx="104.52" cy="14.4"/>
  </g>
  <g  id="B14pin">
   <path  d="M102.126,21.6c0,-1.322,1.071,-2.394,2.394,-2.394c1.321,0,2.394,1.072,2.394,2.394" fill="#BFBFBF"/>
   <path  d="M106.914,21.6c0,1.322,-1.072,2.394,-2.394,2.394c-1.322,0,-2.394,-1.072,-2.394,-2.394" fill="#E6E6E6"/>
   <circle  fill="#383838" r="1.197" cx="104.52" cy="21.6"/>
  </g>
  <g  id="C14pin">
   <path  d="M102.126,28.8c0,-1.322,1.071,-2.394,2.394,-2.394c1.321,0,2.394,1.072,2.394,2.394" fill="#BFBFBF"/>
   <path  d="M106.914,28.8c0,1.322,-1.072,2.394,-2.394,2.394c-1.322,0,-2.394,-1.071,-2.394,-2.394l0,0" fill="#E6E6E6"/>
   <circle  fill="#383838" r="1.197" cx="104.52" cy="28.8"/>
  </g>
  <g  id="D14pin">
   <path  d="M102.126,36c0,-1.322,1.071,-2.394,2.394,-2.394c1.321,0,2.394,1.072,2.394,2.394" fill="#BFBFBF"/>
   <path  d="M106.914,36c0,1.322,-1.072,2.394,-2.394,2.394c-1.322,0,-2.394,-1.072,-2.394,-2.394" fill="#E6E6E6"/>
   <circle  fill="#383838" r="1.197" cx="104.52" cy="36"/>
  </g>
  <g  id="E14pin">
   <path  d="M102.126,43.2c0,-1.322,1.071,-2.394,2.394,-2.394c1.321,0,2.394,1.071,2.394,2.394" fill="#BFBFBF"/>
   <path  d="M106.914,43.2c0,1.322,-1.072,2.394,-2.394,2.394c-1.322,0,-2.394,-1.072,-2.394,-2.394" fill="#E6E6E6"/>
   <circle  fill="#383838" r="1.197" cx="104.52" cy="43.2"/>
  </g>
  <g  id="A15pin">
   <path  d="M109.326,14.4c0.002,-1.322,1.076,-2.392,2.398,-2.39c1.318,0.002,2.387,1.071,2.389,2.39" fill="#BFBFBF"/>
   <path  d="M114.113,14.4c0.002,1.322,-1.067,2.396,-2.389,2.397c-1.322,0.002,-2.396,-1.068,-2.398,-2.39c0,-0.002,0,-0.005,0,-0.007" fill="#E6E6E6"/>
   <circle  fill="#383838" r="1.197" cx="111.72" cy="14.4"/>
  </g>
  <g  id="B15pin">
   <path  d="M109.326,21.6c0.002,-1.322,1.076,-2.392,2.398,-2.39c1.318,0.002,2.387,1.071,2.389,2.39" fill="#BFBFBF"/>
   <path  d="M114.113,21.6c0.002,1.322,-1.067,2.395,-2.389,2.397c-1.322,0.002,-2.396,-1.068,-2.398,-2.39c0,-0.002,0,-0.005,0,-0.007" fill="#E6E6E6"/>
   <circle  fill="#383838" r="1.197" cx="111.72" cy="21.6"/>
  </g>
  <g  id="C15pin">
   <path  d="M109.326,28.8c0.002,-1.322,1.076,-2.392,2.398,-2.39c1.318,0.002,2.387,1.071,2.389,2.39" fill="#BFBFBF"/>
   <path  d="M114.113,28.8c0.002,1.322,-1.067,2.396,-2.389,2.397c-1.322,0.002,-2.396,-1.068,-2.398,-2.39c0,-0.002,0,-0.005,0,-0.007" fill="#E6E6E6"/>
   <circle  fill="#383838" r="1.197" cx="111.72" cy="28.8"/>
  </g>
  <g  id="D15pin">
   <path  d="M109.326,36c0.002,-1.322,1.076,-2.392,2.398,-2.39c1.318,0.002,2.387,1.071,2.389,2.39" fill="#BFBFBF"/>
   <path  d="M114.113,36c0.002,1.322,-1.067,2.395,-2.389,2.397c-1.322,0.002,-2.396,-1.068,-2.398,-2.39c0,-0.002,0,-0.005,0,-0.007" fill="#E6E6E6"/>
   <circle  fill="#383838" r="1.197" cx="111.72" cy="36"/>
  </g>
  <g  id="E15pin">
   <path  d="M109.326,43.2c0.002,-1.322,1.076,-2.392,2.398,-2.39c1.318,0.002,2.387,1.071,2.389,2.39" fill="#BFBFBF"/>
   <path  d="M114.113,43.2c0.002,1.322,-1.067,2.395,-2.389,2.397c-1.322,0.002,-2.396,-1.068,-2.398,-2.39c0,-0.002,0,-0.005,0,-0.007" fill="#E6E6E6"/>
   <circle  fill="#383838" r="1.197" cx="111.72" cy="43.2"/>
  </g>
  <g  id="A16pin">
   <path  d="M116.527,14.4c0.002,-1.322,1.074,-2.392,2.396,-2.39c1.319,0.002,2.389,1.071,2.391,2.39" fill="#BFBFBF"/>
   <path  d="M121.314,14.4c0.002,1.322,-1.068,2.396,-2.391,2.397s-2.395,-1.068,-2.396,-2.39c0,-0.002,0,-0.005,0,-0.007" fill="#E6E6E6"/>
   <circle  fill="#383838" r="1.197" cx="118.919" cy="14.4"/>
  </g>
  <g  id="B16pin">
   <path  d="M116.527,21.6c0.002,-1.322,1.074,-2.392,2.396,-2.39c1.319,0.002,2.389,1.071,2.391,2.39" fill="#BFBFBF"/>
   <path  d="M121.314,21.6c0.002,1.322,-1.068,2.395,-2.391,2.397s-2.395,-1.068,-2.396,-2.39c0,-0.002,0,-0.005,0,-0.007" fill="#E6E6E6"/>
   <circle  fill="#383838" r="1.197" cx="118.919" cy="21.6"/>
  </g>
  <g  id="C16pin">
   <path  d="M116.527,28.8c0.002,-1.322,1.074,-2.392,2.396,-2.39c1.319,0.002,2.389,1.071,2.391,2.39" fill="#BFBFBF"/>
   <path  d="M121.314,28.8c0.002,1.322,-1.068,2.396,-2.391,2.397s-2.395,-1.068,-2.396,-2.39c0,-0.002,0,-0.005,0,-0.007" fill="#E6E6E6"/>
   <circle  fill="#383838" r="1.197" cx="118.919" cy="28.8"/>
  </g>
  <g  id="D16pin">
   <path  d="M116.527,36c0.002,-1.322,1.074,-2.392,2.396,-2.39c1.319,0.002,2.389,1.071,2.391,2.39" fill="#BFBFBF"/>
   <path  d="M121.314,36c0.002,1.322,-1.068,2.395,-2.391,2.397c-1.322,0.002,-2.395,-1.068,-2.396,-2.39c0,-0.002,0,-0.005,0,-0.007" fill="#E6E6E6"/>
   <circle  fill="#383838" r="1.197" cx="118.919" cy="36"/>
  </g>
  <g  id="E16pin">
   <path  d="M116.527,43.2c0.002,-1.322,1.074,-2.392,2.396,-2.39c1.319,0.002,2.389,1.071,2.391,2.39" fill="#BFBFBF"/>
   <path  d="M121.314,43.2c0.002,1.322,-1.068,2.395,-2.391,2.397s-2.395,-1.068,-2.396,-2.39c0,-0.002,0,-0.005,0,-0.007" fill="#E6E6E6"/>
   <circle  fill="#383838" r="1.197" cx="118.919" cy="43.2"/>
  </g>
  <g  id="A17pin">
   <path  d="M123.726,14.4c0.002,-1.322,1.075,-2.392,2.397,-2.39c1.319,0.002,2.388,1.071,2.39,2.39" fill="#BFBFBF"/>
   <path  d="M128.513,14.4c0.002,1.322,-1.068,2.396,-2.39,2.397c-1.322,0.002,-2.396,-1.068,-2.397,-2.39c0,-0.002,0,-0.005,0,-0.007" fill="#E6E6E6"/>
   <circle  fill="#383838" r="1.197" cx="126.12" cy="14.4"/>
  </g>
  <g  id="B17pin">
   <path  d="M123.726,21.6c0.002,-1.322,1.075,-2.392,2.397,-2.39c1.319,0.002,2.388,1.071,2.39,2.39" fill="#BFBFBF"/>
   <path  d="M128.513,21.6c0.002,1.322,-1.068,2.395,-2.39,2.397c-1.322,0.002,-2.396,-1.068,-2.397,-2.39c0,-0.002,0,-0.005,0,-0.007" fill="#E6E6E6"/>
   <circle  fill="#383838" r="1.197" cx="126.12" cy="21.6"/>
  </g>
  <g  id="C17pin">
   <path  d="M123.726,28.8c0.002,-1.322,1.075,-2.392,2.397,-2.39c1.319,0.002,2.388,1.071,2.39,2.39" fill="#BFBFBF"/>
   <path  d="M128.513,28.8c0.002,1.322,-1.068,2.396,-2.39,2.397c-1.322,0.002,-2.396,-1.068,-2.397,-2.39c0,-0.002,0,-0.005,0,-0.007" fill="#E6E6E6"/>
   <circle  fill="#383838" r="1.197" cx="126.12" cy="28.8"/>
  </g>
  <g  id="D17pin">
   <path  d="M123.726,36c0.002,-1.322,1.075,-2.392,2.397,-2.39c1.319,0.002,2.388,1.071,2.39,2.39" fill="#BFBFBF"/>
   <path  d="M128.513,36c0.002,1.322,-1.068,2.395,-2.39,2.397c-1.322,0.002,-2.396,-1.068,-2.397,-2.39c0,-0.002,0,-0.005,0,-0.007" fill="#E6E6E6"/>
   <circle  fill="#383838" r="1.197" cx="126.12" cy="36"/>
  </g>
  <g  id="E17pin">
   <path  d="M123.726,43.2c0.002,-1.322,1.075,-2.392,2.397,-2.39c1.319,0.002,2.388,1.071,2.39,2.39" fill="#BFBFBF"/>
   <path  d="M128.513,43.2c0.002,1.322,-1.068,2.395,-2.39,2.397c-1.322,0.002,-2.396,-1.068,-2.397,-2.39c0,-0.002,0,-0.005,0,-0.007" fill="#E6E6E6"/>
   <circle  fill="#383838" r="1.197" cx="126.12" cy="43.2"/>
  </g>
  <g  id="A18pin">
   <path  d="M130.926,14.4c0.002,-1.322,1.075,-2.392,2.397,-2.39c1.318,0.002,2.388,1.071,2.39,2.39" fill="#BFBFBF"/>
   <path  d="M135.713,14.4c0.002,1.322,-1.067,2.396,-2.39,2.397s-2.396,-1.068,-2.397,-2.39c0,-0.002,0,-0.005,0,-0.007" fill="#E6E6E6"/>
   <circle  fill="#383838" r="1.197" cx="133.32" cy="14.4"/>
  </g>
  <g  id="B18pin">
   <path  d="M130.926,21.6c0.002,-1.322,1.075,-2.392,2.397,-2.39c1.318,0.002,2.388,1.071,2.39,2.39" fill="#BFBFBF"/>
   <path  d="M135.713,21.6c0.002,1.322,-1.067,2.395,-2.39,2.397s-2.396,-1.068,-2.397,-2.39c0,-0.002,0,-0.005,0,-0.007" fill="#E6E6E6"/>
   <circle  fill="#383838" r="1.197" cx="133.32" cy="21.6"/>
  </g>
  <g  id="C18pin">
   <path  d="M130.926,28.8c0.002,-1.322,1.075,-2.392,2.397,-2.39c1.318,0.002,2.388,1.071,2.39,2.39" fill="#BFBFBF"/>
   <path  d="M135.713,28.8c0.002,1.322,-1.067,2.396,-2.39,2.397s-2.396,-1.068,-2.397,-2.39c0,-0.002,0,-0.005,0,-0.007" fill="#E6E6E6"/>
   <circle  fill="#383838" r="1.197" cx="133.32" cy="28.8"/>
  </g>
  <g  id="D18pin">
   <path  d="M130.926,36c0.002,-1.322,1.075,-2.392,2.397,-2.39c1.318,0.002,2.388,1.071,2.39,2.39" fill="#BFBFBF"/>
   <path  d="M135.713,36c0.002,1.322,-1.067,2.395,-2.39,2.397c-1.322,0.002,-2.396,-1.068,-2.397,-2.39c0,-0.002,0,-0.005,0,-0.007" fill="#E6E6E6"/>
   <circle  fill="#383838" r="1.197" cx="133.32" cy="36"/>
  </g>
  <g  id="E18pin">
   <path  d="M130.926,43.2c0.002,-1.322,1.075,-2.392,2.397,-2.39c1.318,0.002,2.388,1.071,2.39,2.39" fill="#BFBFBF"/>
   <path  d="M135.713,43.2c0.002,1.322,-1.067,2.395,-2.39,2.397s-2.396,-1.068,-2.397,-2.39c0,-0.002,0,-0.005,0,-0.007" fill="#E6E6E6"/>
   <circle  fill="#383838" r="1.197" cx="133.32" cy="43.2"/>
  </g>
  <g  id="A19pin">
   <path  d="M138.126,14.4c0.002,-1.322,1.075,-2.392,2.396,-2.39c1.319,0.002,2.389,1.071,2.391,2.39" fill="#BFBFBF"/>
   <path  d="M142.914,14.4c0.002,1.322,-1.068,2.396,-2.391,2.397c-1.321,0.002,-2.395,-1.068,-2.396,-2.39c0,-0.002,0,-0.005,0,-0.007" fill="#E6E6E6"/>
   <circle  fill="#383838" r="1.197" cx="140.52" cy="14.4"/>
  </g>
  <g  id="B19pin">
   <path  d="M138.126,21.6c0.002,-1.322,1.075,-2.392,2.396,-2.39c1.319,0.002,2.389,1.071,2.391,2.39" fill="#BFBFBF"/>
   <path  d="M142.914,21.6c0.002,1.322,-1.068,2.395,-2.391,2.397c-1.321,0.002,-2.395,-1.068,-2.396,-2.39c0,-0.002,0,-0.005,0,-0.007" fill="#E6E6E6"/>
   <circle  fill="#383838" r="1.197" cx="140.52" cy="21.6"/>
  </g>
  <g  id="C19pin">
   <path  d="M138.126,28.8c0.002,-1.322,1.075,-2.392,2.396,-2.39c1.319,0.002,2.389,1.071,2.391,2.39" fill="#BFBFBF"/>
   <path  d="M142.914,28.8c0.002,1.322,-1.068,2.396,-2.391,2.397c-1.321,0.002,-2.395,-1.068,-2.396,-2.39c0,-0.002,0,-0.005,0,-0.007" fill="#E6E6E6"/>
   <circle  fill="#383838" r="1.197" cx="140.52" cy="28.8"/>
  </g>
  <g  id="D19pin">
   <path  d="M138.126,36c0.002,-1.322,1.075,-2.392,2.396,-2.39c1.319,0.002,2.389,1.071,2.391,2.39" fill="#BFBFBF"/>
   <path  d="M142.914,36c0.002,1.322,-1.068,2.395,-2.391,2.397c-1.321,0.002,-2.395,-1.068,-2.396,-2.39c0,-0.002,0,-0.005,0,-0.007" fill="#E6E6E6"/>
   <circle  fill="#383838" r="1.197" cx="140.52" cy="36"/>
  </g>
  <g  id="E19pin">
   <path  d="M138.126,43.2c0.002,-1.322,1.075,-2.392,2.396,-2.39c1.319,0.002,2.389,1.071,2.391,2.39" fill="#BFBFBF"/>
   <path  d="M142.914,43.2c0.002,1.322,-1.068,2.395,-2.391,2.397c-1.321,0.002,-2.395,-1.068,-2.396,-2.39c0,-0.002,0,-0.005,0,-0.007" fill="#E6E6E6"/>
   <circle  fill="#383838" r="1.197" cx="140.52" cy="43.2"/>
  </g>
  <g  id="A20pin">
   <path  d="M145.326,14.4c0.002,-1.322,1.076,-2.392,2.397,-2.39c1.319,0.002,2.388,1.071,2.39,2.39" fill="#BFBFBF"/>
   <path  d="M150.113,14.4c0.002,1.322,-1.067,2.396,-2.39,2.397c-1.321,0.002,-2.396,-1.068,-2.397,-2.39c0,-0.002,0,-0.005,0,-0.007" fill="#E6E6E6"/>
   <circle  fill="#383838" r="1.197" cx="147.72" cy="14.4"/>
  </g>
  <g  id="B20pin">
   <path  d="M145.326,21.6c0.002,-1.322,1.076,-2.392,2.397,-2.39c1.319,0.002,2.388,1.071,2.39,2.39" fill="#BFBFBF"/>
   <path  d="M150.113,21.6c0.002,1.322,-1.067,2.395,-2.39,2.397c-1.321,0.002,-2.396,-1.068,-2.397,-2.39c0,-0.002,0,-0.005,0,-0.007" fill="#E6E6E6"/>
   <circle  fill="#383838" r="1.197" cx="147.72" cy="21.6"/>
  </g>
  <g  id="C20pin">
   <path  d="M145.326,28.8c0.002,-1.322,1.076,-2.392,2.397,-2.39c1.319,0.002,2.388,1.071,2.39,2.39" fill="#BFBFBF"/>
   <path  d="M150.113,28.8c0.002,1.322,-1.067,2.396,-2.39,2.397c-1.321,0.002,-2.396,-1.068,-2.397,-2.39c0,-0.002,0,-0.005,0,-0.007" fill="#E6E6E6"/>
   <circle  fill="#383838" r="1.197" cx="147.72" cy="28.8"/>
  </g>
  <g  id="D20pin">
   <path  d="M145.326,36c0.002,-1.322,1.076,-2.392,2.397,-2.39c1.319,0.002,2.388,1.071,2.39,2.39" fill="#BFBFBF"/>
   <path  d="M150.113,36c0.002,1.322,-1.067,2.395,-2.39,2.397c-1.321,0.002,-2.396,-1.068,-2.397,-2.39c0,-0.002,0,-0.005,0,-0.007" fill="#E6E6E6"/>
   <circle  fill="#383838" r="1.197" cx="147.72" cy="36"/>
  </g>
  <g  id="E20pin">
   <path  d="M145.326,43.2c0.002,-1.322,1.076,-2.392,2.397,-2.39c1.319,0.002,2.388,1.071,2.39,2.39" fill="#BFBFBF"/>
   <path  d="M150.113,43.2c0.002,1.322,-1.067,2.395,-2.39,2.397c-1.321,0.002,-2.396,-1.068,-2.397,-2.39c0,-0.002,0,-0.005,0,-0.007" fill="#E6E6E6"/>
   <circle  fill="#383838" r="1.197" cx="147.72" cy="43.2"/>
  </g>
  <g  id="F1pin">
   <path  d="M8.526,64.8c0,-1.321,1.072,-2.394,2.394,-2.394s2.394,1.072,2.394,2.394" fill="#BFBFBF"/>
   <path  d="M13.313,64.8c0,1.322,-1.072,2.394,-2.394,2.394S8.526,66.122,8.526,64.8l0,0" fill="#E6E6E6"/>
   <circle  fill="#383838" r="1.196" cx="10.92" cy="64.8"/>
  </g>
  <g  id="G1pin">
   <path  d="M8.526,72c0,-1.322,1.072,-2.394,2.394,-2.394s2.394,1.071,2.394,2.394" fill="#BFBFBF"/>
   <path  d="M13.313,72c0,1.322,-1.072,2.394,-2.394,2.394S8.526,73.322,8.526,72l0,0" fill="#E6E6E6"/>
   <circle  fill="#383838" r="1.197" cx="10.92" cy="72"/>
  </g>
  <g  id="H1pin">
   <path  d="M8.526,79.2c0,-1.322,1.072,-2.394,2.394,-2.394s2.394,1.071,2.394,2.394" fill="#BFBFBF"/>
   <path  d="M13.313,79.2c0,1.321,-1.072,2.394,-2.394,2.394S8.526,80.521,8.526,79.2" fill="#E6E6E6"/>
   <circle  fill="#383838" r="1.197" cx="10.92" cy="79.2"/>
  </g>
  <g  id="I1pin">
   <path  d="M8.526,86.4c0,-1.322,1.072,-2.395,2.394,-2.395s2.394,1.072,2.394,2.395" fill="#BFBFBF"/>
   <path  d="M13.313,86.4c0,1.321,-1.072,2.393,-2.394,2.393S8.526,87.722,8.526,86.4l0,0" fill="#E6E6E6"/>
   <circle  fill="#383838" r="1.197" cx="10.92" cy="86.4"/>
  </g>
  <g  id="J1pin">
   <path  d="M8.526,93.6c0,-1.322,1.072,-2.394,2.394,-2.394s2.394,1.071,2.394,2.394" fill="#BFBFBF"/>
   <path  d="M13.313,93.6c0,1.322,-1.072,2.395,-2.394,2.395S8.526,94.922,8.526,93.6l0,0" fill="#E6E6E6"/>
   <circle  fill="#383838" r="1.197" cx="10.92" cy="93.6"/>
  </g>
  <g  id="F2pin">
   <path  d="M15.727,64.8c0,-1.321,1.071,-2.394,2.394,-2.394c1.322,0,2.394,1.072,2.394,2.394" fill="#BFBFBF"/>
   <path  d="M20.514,64.8c0,1.322,-1.07,2.395,-2.393,2.396c-1.322,0,-2.394,-1.07,-2.395,-2.393c0,-0.001,0,-0.002,0,-0.003" fill="#E6E6E6"/>
   <circle  fill="#383838" r="1.196" cx="18.12" cy="64.8"/>
  </g>
  <g  id="G2pin">
   <path  d="M15.727,72c0,-1.322,1.071,-2.394,2.394,-2.394c1.322,0,2.394,1.071,2.394,2.394" fill="#BFBFBF"/>
   <path  d="M20.514,72c0,1.322,-1.07,2.395,-2.393,2.395c-1.322,0.001,-2.394,-1.07,-2.395,-2.393c0,0,0,-0.001,0,-0.002" fill="#E6E6E6"/>
   <circle  fill="#383838" r="1.197" cx="18.12" cy="72"/>
  </g>
  <g  id="H2pin">
   <path  d="M15.727,79.2c0,-1.322,1.071,-2.394,2.394,-2.394c1.322,0,2.394,1.071,2.394,2.394" fill="#BFBFBF"/>
   <path  d="M20.514,79.2c0,1.321,-1.07,2.394,-2.393,2.395c-1.322,0.001,-2.394,-1.07,-2.395,-2.392c0,-0.002,0,-0.002,0,-0.003" fill="#E6E6E6"/>
   <circle  fill="#383838" r="1.197" cx="18.12" cy="79.2"/>
  </g>
  <g  id="I2pin">
   <path  d="M15.727,86.4c0,-1.322,1.071,-2.395,2.394,-2.395c1.322,0,2.394,1.072,2.394,2.395" fill="#BFBFBF"/>
   <path  d="M20.514,86.4c0,1.321,-1.07,2.394,-2.393,2.395c-1.322,0,-2.394,-1.07,-2.395,-2.393L15.726,86.4" fill="#E6E6E6"/>
   <circle  fill="#383838" r="1.197" cx="18.12" cy="86.4"/>
  </g>
  <g  id="J2pin">
   <path  d="M15.727,93.6c0,-1.322,1.071,-2.394,2.394,-2.394c1.322,0,2.394,1.071,2.394,2.394" fill="#BFBFBF"/>
   <path  d="M20.514,93.6c0,1.322,-1.07,2.395,-2.393,2.396c-1.322,0.001,-2.394,-1.071,-2.395,-2.393c0,-0.001,0,-0.002,0,-0.003" fill="#E6E6E6"/>
   <circle  fill="#383838" r="1.197" cx="18.12" cy="93.6"/>
  </g>
  <g  id="F3pin">
   <path  d="M22.926,64.8c0,-1.321,1.072,-2.394,2.394,-2.394c1.322,0,2.394,1.072,2.394,2.394" fill="#BFBFBF"/>
   <path  d="M27.713,64.8c0,1.322,-1.071,2.394,-2.394,2.394c-1.322,0,-2.394,-1.071,-2.394,-2.394" fill="#E6E6E6"/>
   <circle  fill="#383838" r="1.196" cx="25.32" cy="64.8"/>
  </g>
  <g  id="G3pin">
   <path  d="M22.926,72c0,-1.322,1.072,-2.394,2.394,-2.394c1.322,0,2.394,1.071,2.394,2.394" fill="#BFBFBF"/>
   <path  d="M27.713,72c0,1.322,-1.071,2.394,-2.394,2.394c-1.322,0,-2.394,-1.071,-2.394,-2.394" fill="#E6E6E6"/>
   <circle  fill="#383838" r="1.197" cx="25.32" cy="72"/>
  </g>
  <g  id="H3pin">
   <path  d="M22.926,79.2c0,-1.322,1.072,-2.394,2.394,-2.394c1.322,0,2.394,1.071,2.394,2.394" fill="#BFBFBF"/>
   <path  d="M27.713,79.2c0,1.321,-1.071,2.394,-2.394,2.394c-1.322,0,-2.394,-1.072,-2.394,-2.394l0,0" fill="#E6E6E6"/>
   <circle  fill="#383838" r="1.197" cx="25.32" cy="79.2"/>
  </g>
  <g  id="I3pin">
   <path  d="M22.926,86.4c0,-1.322,1.072,-2.395,2.394,-2.395c1.322,0,2.394,1.072,2.394,2.395" fill="#BFBFBF"/>
   <path  d="M27.713,86.4c0,1.321,-1.071,2.393,-2.394,2.393c-1.322,0,-2.394,-1.071,-2.394,-2.393" fill="#E6E6E6"/>
   <circle  fill="#383838" r="1.197" cx="25.32" cy="86.4"/>
  </g>
  <g  id="J3pin">
   <path  d="M22.926,93.6c0,-1.322,1.072,-2.394,2.394,-2.394c1.322,0,2.394,1.071,2.394,2.394" fill="#BFBFBF"/>
   <path  d="M27.713,93.6c0,1.322,-1.071,2.395,-2.394,2.395c-1.322,0,-2.394,-1.072,-2.394,-2.395l0,0" fill="#E6E6E6"/>
   <circle  fill="#383838" r="1.197" cx="25.32" cy="93.6"/>
  </g>
  <g  id="F4pin">
   <path  d="M30.126,64.8c0,-1.321,1.072,-2.394,2.394,-2.394s2.394,1.072,2.394,2.394" fill="#BFBFBF"/>
   <path  d="M34.914,64.8c0,1.322,-1.072,2.394,-2.394,2.394s-2.394,-1.071,-2.394,-2.394" fill="#E6E6E6"/>
   <circle  fill="#383838" r="1.196" cx="32.52" cy="64.8"/>
  </g>
  <g  id="G4pin">
   <path  d="M30.126,72c0,-1.322,1.072,-2.394,2.394,-2.394s2.394,1.071,2.394,2.394" fill="#BFBFBF"/>
   <path  d="M34.914,72c0,1.322,-1.072,2.394,-2.394,2.394S30.126,73.322,30.126,72" fill="#E6E6E6"/>
   <circle  fill="#383838" r="1.197" cx="32.52" cy="72"/>
  </g>
  <g  id="H4pin">
   <path  d="M30.126,79.2c0,-1.322,1.072,-2.394,2.394,-2.394s2.394,1.071,2.394,2.394" fill="#BFBFBF"/>
   <path  d="M34.914,79.2c0,1.321,-1.072,2.394,-2.394,2.394s-2.394,-1.072,-2.394,-2.394l0,0" fill="#E6E6E6"/>
   <circle  fill="#383838" r="1.197" cx="32.52" cy="79.2"/>
  </g>
  <g  id="I4pin">
   <path  d="M30.126,86.4c0,-1.322,1.072,-2.395,2.394,-2.395s2.394,1.072,2.394,2.395" fill="#BFBFBF"/>
   <path  d="M34.914,86.4c0,1.321,-1.072,2.393,-2.394,2.393s-2.394,-1.071,-2.394,-2.393" fill="#E6E6E6"/>
   <circle  fill="#383838" r="1.197" cx="32.52" cy="86.4"/>
  </g>
  <g  id="J4pin">
   <path  d="M30.126,93.6c0,-1.322,1.072,-2.394,2.394,-2.394s2.394,1.071,2.394,2.394" fill="#BFBFBF"/>
   <path  d="M34.914,93.6c0,1.322,-1.072,2.395,-2.394,2.395s-2.394,-1.072,-2.394,-2.395l0,0" fill="#E6E6E6"/>
   <circle  fill="#383838" r="1.197" cx="32.52" cy="93.6"/>
  </g>
  <g  id="F5pin">
   <path  d="M37.326,64.8c0,-1.321,1.072,-2.394,2.394,-2.394c1.322,0,2.394,1.072,2.394,2.394" fill="#BFBFBF"/>
   <path  d="M42.114,64.8c0,1.322,-1.072,2.394,-2.394,2.394c-1.322,0,-2.394,-1.071,-2.394,-2.394" fill="#E6E6E6"/>
   <circle  fill="#383838" r="1.196" cx="39.72" cy="64.8"/>
  </g>
  <g  id="G5pin">
   <path  d="M37.326,72c0,-1.322,1.072,-2.394,2.394,-2.394c1.322,0,2.394,1.071,2.394,2.394" fill="#BFBFBF"/>
   <path  d="M42.114,72c0,1.322,-1.072,2.394,-2.394,2.394c-1.322,0,-2.394,-1.071,-2.394,-2.394" fill="#E6E6E6"/>
   <circle  fill="#383838" r="1.197" cx="39.72" cy="72"/>
  </g>
  <g  id="H5pin">
   <path  d="M37.326,79.2c0,-1.322,1.072,-2.394,2.394,-2.394c1.322,0,2.394,1.071,2.394,2.394" fill="#BFBFBF"/>
   <path  d="M42.114,79.2c0,1.321,-1.072,2.394,-2.394,2.394c-1.322,0,-2.394,-1.072,-2.394,-2.394l0,0" fill="#E6E6E6"/>
   <circle  fill="#383838" r="1.197" cx="39.72" cy="79.2"/>
  </g>
  <g  id="I5pin">
   <path  d="M37.326,86.4c0,-1.322,1.072,-2.395,2.394,-2.395c1.322,0,2.394,1.072,2.394,2.395" fill="#BFBFBF"/>
   <path  d="M42.114,86.4c0,1.321,-1.072,2.393,-2.394,2.393c-1.322,0,-2.394,-1.071,-2.394,-2.393" fill="#E6E6E6"/>
   <circle  fill="#383838" r="1.197" cx="39.72" cy="86.4"/>
  </g>
  <g  id="J5pin">
   <path  d="M37.326,93.6c0,-1.322,1.072,-2.394,2.394,-2.394c1.322,0,2.394,1.071,2.394,2.394" fill="#BFBFBF"/>
   <path  d="M42.114,93.6c0,1.322,-1.072,2.395,-2.394,2.395c-1.322,0,-2.394,-1.072,-2.394,-2.395l0,0" fill="#E6E6E6"/>
   <circle  fill="#383838" r="1.197" cx="39.72" cy="93.6"/>
  </g>
  <g  id="F6pin">
   <path  d="M44.526,64.8c0,-1.321,1.072,-2.394,2.394,-2.394s2.394,1.072,2.394,2.394" fill="#BFBFBF"/>
   <path  d="M49.313,64.8c0,1.322,-1.072,2.394,-2.394,2.394s-2.394,-1.071,-2.394,-2.394" fill="#E6E6E6"/>
   <circle  fill="#383838" r="1.196" cx="46.92" cy="64.8"/>
  </g>
  <g  id="G6pin">
   <path  d="M44.526,72c0,-1.322,1.072,-2.394,2.394,-2.394s2.394,1.071,2.394,2.394" fill="#BFBFBF"/>
   <path  d="M49.313,72c0,1.322,-1.072,2.394,-2.394,2.394S44.526,73.322,44.526,72" fill="#E6E6E6"/>
   <circle  fill="#383838" r="1.197" cx="46.92" cy="72"/>
  </g>
  <g  id="H6pin">
   <path  d="M44.526,79.2c0,-1.322,1.072,-2.394,2.394,-2.394s2.394,1.071,2.394,2.394" fill="#BFBFBF"/>
   <path  d="M49.313,79.2c0,1.321,-1.072,2.394,-2.394,2.394s-2.394,-1.072,-2.394,-2.394l0,0" fill="#E6E6E6"/>
   <circle  fill="#383838" r="1.197" cx="46.92" cy="79.2"/>
  </g>
  <g  id="I6pin">
   <path  d="M44.526,86.4c0,-1.322,1.072,-2.395,2.394,-2.395s2.394,1.072,2.394,2.395" fill="#BFBFBF"/>
   <path  d="M49.313,86.4c0,1.321,-1.072,2.393,-2.394,2.393s-2.394,-1.071,-2.394,-2.393" fill="#E6E6E6"/>
   <circle  fill="#383838" r="1.197" cx="46.92" cy="86.4"/>
  </g>
  <g  id="J6pin">
   <path  d="M44.526,93.6c0,-1.322,1.072,-2.394,2.394,-2.394s2.394,1.071,2.394,2.394" fill="#BFBFBF"/>
   <path  d="M49.313,93.6c0,1.322,-1.072,2.395,-2.394,2.395s-2.394,-1.072,-2.394,-2.395l0,0" fill="#E6E6E6"/>
   <circle  fill="#383838" r="1.197" cx="46.92" cy="93.6"/>
  </g>
  <g  id="F7pin">
   <path  d="M51.727,64.8c0,-1.321,1.071,-2.394,2.394,-2.394c1.322,0,2.394,1.072,2.394,2.394" fill="#BFBFBF"/>
   <path  d="M56.514,64.8c0,1.322,-1.072,2.394,-2.394,2.394c-1.322,0,-2.394,-1.071,-2.394,-2.394" fill="#E6E6E6"/>
   <circle  fill="#383838" r="1.196" cx="54.12" cy="64.8"/>
  </g>
  <g  id="G7pin">
   <path  d="M51.727,72c0,-1.322,1.071,-2.394,2.394,-2.394c1.322,0,2.394,1.071,2.394,2.394" fill="#BFBFBF"/>
   <path  d="M56.514,72c0,1.322,-1.072,2.394,-2.394,2.394c-1.322,0,-2.394,-1.071,-2.394,-2.394" fill="#E6E6E6"/>
   <circle  fill="#383838" r="1.197" cx="54.12" cy="72"/>
  </g>
  <g  id="H7pin">
   <path  d="M51.727,79.2c0,-1.322,1.071,-2.394,2.394,-2.394c1.322,0,2.394,1.071,2.394,2.394" fill="#BFBFBF"/>
   <path  d="M56.514,79.2c0,1.321,-1.072,2.394,-2.394,2.394c-1.322,0,-2.394,-1.072,-2.394,-2.394l0,0" fill="#E6E6E6"/>
   <circle  fill="#383838" r="1.197" cx="54.12" cy="79.2"/>
  </g>
  <g  id="I7pin">
   <path  d="M51.727,86.4c0,-1.322,1.071,-2.395,2.394,-2.395c1.322,0,2.394,1.072,2.394,2.395" fill="#BFBFBF"/>
   <path  d="M56.514,86.4c0,1.321,-1.072,2.393,-2.394,2.393c-1.322,0,-2.394,-1.071,-2.394,-2.393" fill="#E6E6E6"/>
   <circle  fill="#383838" r="1.197" cx="54.12" cy="86.4"/>
  </g>
  <g  id="J7pin">
   <path  d="M51.727,93.6c0,-1.322,1.071,-2.394,2.394,-2.394c1.322,0,2.394,1.071,2.394,2.394" fill="#BFBFBF"/>
   <path  d="M56.514,93.6c0,1.322,-1.072,2.395,-2.394,2.395c-1.322,0,-2.394,-1.072,-2.394,-2.395l0,0" fill="#E6E6E6"/>
   <circle  fill="#383838" r="1.197" cx="54.12" cy="93.6"/>
  </g>
  <g  id="F8pin">
   <path  d="M58.926,64.8c0,-1.321,1.072,-2.394,2.394,-2.394c1.322,0,2.394,1.072,2.394,2.394" fill="#BFBFBF"/>
   <path  d="M63.713,64.8c0,1.322,-1.071,2.394,-2.394,2.394c-1.322,0,-2.394,-1.071,-2.394,-2.394" fill="#E6E6E6"/>
   <circle  fill="#383838" r="1.196" cx="61.32" cy="64.8"/>
  </g>
  <g  id="G8pin">
   <path  d="M58.926,72c0,-1.322,1.072,-2.394,2.394,-2.394c1.322,0,2.394,1.071,2.394,2.394" fill="#BFBFBF"/>
   <path  d="M63.713,72c0,1.322,-1.071,2.394,-2.394,2.394c-1.322,0,-2.394,-1.071,-2.394,-2.394" fill="#E6E6E6"/>
   <circle  fill="#383838" r="1.197" cx="61.32" cy="72"/>
  </g>
  <g  id="H8pin">
   <path  d="M58.926,79.2c0,-1.322,1.072,-2.394,2.394,-2.394c1.322,0,2.394,1.071,2.394,2.394" fill="#BFBFBF"/>
   <path  d="M63.713,79.2c0,1.321,-1.071,2.394,-2.394,2.394c-1.322,0,-2.394,-1.072,-2.394,-2.394l0,0" fill="#E6E6E6"/>
   <circle  fill="#383838" r="1.197" cx="61.32" cy="79.2"/>
  </g>
  <g  id="I8pin">
   <path  d="M58.926,86.4c0,-1.322,1.072,-2.395,2.394,-2.395c1.322,0,2.394,1.072,2.394,2.395" fill="#BFBFBF"/>
   <path  d="M63.713,86.4c0,1.321,-1.071,2.393,-2.394,2.393c-1.322,0,-2.394,-1.071,-2.394,-2.393" fill="#E6E6E6"/>
   <circle  fill="#383838" r="1.197" cx="61.32" cy="86.4"/>
  </g>
  <g  id="J8pin">
   <path  d="M58.926,93.6c0,-1.322,1.072,-2.394,2.394,-2.394c1.322,0,2.394,1.071,2.394,2.394" fill="#BFBFBF"/>
   <path  d="M63.713,93.6c0,1.322,-1.071,2.395,-2.394,2.395c-1.322,0,-2.394,-1.072,-2.394,-2.395l0,0" fill="#E6E6E6"/>
   <circle  fill="#383838" r="1.197" cx="61.32" cy="93.6"/>
  </g>
  <g  id="F9pin">
   <path  d="M66.126,64.8c0,-1.321,1.071,-2.394,2.394,-2.394c1.322,0,2.394,1.072,2.394,2.394" fill="#BFBFBF"/>
   <path  d="M70.914,64.8c0,1.322,-1.072,2.394,-2.394,2.394c-1.322,0,-2.394,-1.071,-2.394,-2.394" fill="#E6E6E6"/>
   <circle  fill="#383838" r="1.196" cx="68.52" cy="64.8"/>
  </g>
  <g  id="G9pin">
   <path  d="M66.126,72c0,-1.322,1.071,-2.394,2.394,-2.394c1.322,0,2.394,1.071,2.394,2.394" fill="#BFBFBF"/>
   <path  d="M70.914,72c0,1.322,-1.072,2.394,-2.394,2.394c-1.322,0,-2.394,-1.071,-2.394,-2.394" fill="#E6E6E6"/>
   <circle  fill="#383838" r="1.197" cx="68.52" cy="72"/>
  </g>
  <g  id="H9pin">
   <path  d="M66.126,79.2c0,-1.322,1.071,-2.394,2.394,-2.394c1.322,0,2.394,1.071,2.394,2.394" fill="#BFBFBF"/>
   <path  d="M70.914,79.2c0,1.321,-1.072,2.394,-2.394,2.394c-1.322,0,-2.394,-1.072,-2.394,-2.394l0,0" fill="#E6E6E6"/>
   <circle  fill="#383838" r="1.197" cx="68.52" cy="79.2"/>
  </g>
  <g  id="I9pin">
   <path  d="M66.126,86.4c0,-1.322,1.071,-2.395,2.394,-2.395c1.322,0,2.394,1.072,2.394,2.395" fill="#BFBFBF"/>
   <path  d="M70.914,86.4c0,1.321,-1.072,2.393,-2.394,2.393c-1.322,0,-2.394,-1.071,-2.394,-2.393" fill="#E6E6E6"/>
   <circle  fill="#383838" r="1.197" cx="68.52" cy="86.4"/>
  </g>
  <g  id="J9pin">
   <path  d="M66.126,93.6c0,-1.322,1.071,-2.394,2.394,-2.394c1.322,0,2.394,1.071,2.394,2.394" fill="#BFBFBF"/>
   <path  d="M70.914,93.6c0,1.322,-1.072,2.395,-2.394,2.395c-1.322,0,-2.394,-1.072,-2.394,-2.395l0,0" fill="#E6E6E6"/>
   <circle  fill="#383838" r="1.197" cx="68.52" cy="93.6"/>
  </g>
  <g  id="F10pin">
   <path  d="M73.326,64.8c0,-1.321,1.072,-2.394,2.394,-2.394c1.322,0,2.394,1.072,2.394,2.394" fill="#BFBFBF"/>
   <path  d="M78.113,64.8c0,1.322,-1.071,2.394,-2.394,2.394c-1.322,0,-2.394,-1.071,-2.394,-2.394" fill="#E6E6E6"/>
   <circle  fill="#383838" r="1.196" cx="75.72" cy="64.8"/>
  </g>
  <g  id="G10pin">
   <path  d="M73.326,72c0,-1.322,1.072,-2.394,2.394,-2.394c1.322,0,2.394,1.071,2.394,2.394" fill="#BFBFBF"/>
   <path  d="M78.113,72c0,1.322,-1.071,2.394,-2.394,2.394c-1.322,0,-2.394,-1.071,-2.394,-2.394" fill="#E6E6E6"/>
   <circle  fill="#383838" r="1.197" cx="75.72" cy="72"/>
  </g>
  <g  id="H10pin">
   <path  d="M73.326,79.2c0,-1.322,1.072,-2.394,2.394,-2.394c1.322,0,2.394,1.071,2.394,2.394" fill="#BFBFBF"/>
   <path  d="M78.113,79.2c0,1.321,-1.071,2.394,-2.394,2.394c-1.322,0,-2.394,-1.072,-2.394,-2.394l0,0" fill="#E6E6E6"/>
   <circle  fill="#383838" r="1.197" cx="75.72" cy="79.2"/>
  </g>
  <g  id="I10pin">
   <path  d="M73.326,86.4c0,-1.322,1.072,-2.395,2.394,-2.395c1.322,0,2.394,1.072,2.394,2.395" fill="#BFBFBF"/>
   <path  d="M78.113,86.4c0,1.321,-1.071,2.393,-2.394,2.393c-1.322,0,-2.394,-1.071,-2.394,-2.393" fill="#E6E6E6"/>
   <circle  fill="#383838" r="1.197" cx="75.72" cy="86.4"/>
  </g>
  <g  id="J10pin">
   <path  d="M73.326,93.6c0,-1.322,1.072,-2.394,2.394,-2.394c1.322,0,2.394,1.071,2.394,2.394" fill="#BFBFBF"/>
   <path  d="M78.113,93.6c0,1.322,-1.071,2.395,-2.394,2.395c-1.322,0,-2.394,-1.072,-2.394,-2.395l0,0" fill="#E6E6E6"/>
   <circle  fill="#383838" r="1.197" cx="75.72" cy="93.6"/>
  </g>
  <g  id="F11pin">
   <path  d="M80.527,64.8c0,-1.321,1.071,-2.394,2.393,-2.394c1.322,0,2.395,1.072,2.395,2.394" fill="#BFBFBF"/>
   <path  d="M85.314,64.8c0,1.322,-1.072,2.394,-2.395,2.394c-1.321,0,-2.393,-1.071,-2.393,-2.394" fill="#E6E6E6"/>
   <circle  fill="#383838" r="1.196" cx="82.919" cy="64.8"/>
  </g>
  <g  id="G11pin">
   <path  d="M80.527,72c0,-1.322,1.071,-2.394,2.393,-2.394c1.322,0,2.395,1.071,2.395,2.394" fill="#BFBFBF"/>
   <path  d="M85.314,72c0,1.322,-1.072,2.394,-2.395,2.394c-1.321,0,-2.393,-1.071,-2.393,-2.394" fill="#E6E6E6"/>
   <circle  fill="#383838" r="1.197" cx="82.919" cy="72"/>
  </g>
  <g  id="H11pin">
   <path  d="M80.527,79.2c0,-1.322,1.071,-2.394,2.393,-2.394c1.322,0,2.395,1.071,2.395,2.394" fill="#BFBFBF"/>
   <path  d="M85.314,79.2c0,1.321,-1.072,2.394,-2.395,2.394c-1.321,0,-2.393,-1.072,-2.393,-2.394l0,0" fill="#E6E6E6"/>
   <circle  fill="#383838" r="1.197" cx="82.919" cy="79.2"/>
  </g>
  <g  id="I11pin">
   <path  d="M80.527,86.4c0,-1.322,1.071,-2.395,2.393,-2.395c1.322,0,2.395,1.072,2.395,2.395" fill="#BFBFBF"/>
   <path  d="M85.314,86.4c0,1.321,-1.072,2.393,-2.395,2.393c-1.321,0,-2.393,-1.071,-2.393,-2.393" fill="#E6E6E6"/>
   <circle  fill="#383838" r="1.197" cx="82.919" cy="86.4"/>
  </g>
  <g  id="J11pin">
   <path  d="M80.527,93.6c0,-1.322,1.071,-2.394,2.393,-2.394c1.322,0,2.395,1.071,2.395,2.394" fill="#BFBFBF"/>
   <path  d="M85.314,93.6c0,1.322,-1.072,2.395,-2.395,2.395c-1.321,0,-2.393,-1.072,-2.393,-2.395l0,0" fill="#E6E6E6"/>
   <circle  fill="#383838" r="1.197" cx="82.919" cy="93.6"/>
  </g>
  <g  id="F12pin">
   <path  d="M87.726,64.8c0,-1.321,1.072,-2.394,2.394,-2.394c1.322,0,2.394,1.072,2.394,2.394" fill="#BFBFBF"/>
   <path  d="M92.513,64.8c0,1.322,-1.071,2.394,-2.394,2.394c-1.321,0,-2.394,-1.071,-2.394,-2.394" fill="#E6E6E6"/>
   <circle  fill="#383838" r="1.196" cx="90.12" cy="64.8"/>
  </g>
  <g  id="G12pin">
   <path  d="M87.726,72c0,-1.322,1.072,-2.394,2.394,-2.394c1.322,0,2.394,1.071,2.394,2.394" fill="#BFBFBF"/>
   <path  d="M92.513,72c0,1.322,-1.071,2.394,-2.394,2.394c-1.321,0,-2.394,-1.071,-2.394,-2.394" fill="#E6E6E6"/>
   <circle  fill="#383838" r="1.197" cx="90.12" cy="72"/>
  </g>
  <g  id="H12pin">
   <path  d="M87.726,79.2c0,-1.322,1.072,-2.394,2.394,-2.394c1.322,0,2.394,1.071,2.394,2.394" fill="#BFBFBF"/>
   <path  d="M92.513,79.2c0,1.321,-1.071,2.394,-2.394,2.394c-1.321,0,-2.394,-1.072,-2.394,-2.394l0,0" fill="#E6E6E6"/>
   <circle  fill="#383838" r="1.197" cx="90.12" cy="79.2"/>
  </g>
  <g  id="I12pin">
   <path  d="M87.726,86.4c0,-1.322,1.072,-2.395,2.394,-2.395c1.322,0,2.394,1.072,2.394,2.395" fill="#BFBFBF"/>
   <path  d="M92.513,86.4c0,1.321,-1.071,2.393,-2.394,2.393c-1.321,0,-2.394,-1.071,-2.394,-2.393" fill="#E6E6E6"/>
   <circle  fill="#383838" r="1.197" cx="90.12" cy="86.4"/>
  </g>
  <g  id="J12pin">
   <path  d="M87.726,93.6c0,-1.322,1.072,-2.394,2.394,-2.394c1.322,0,2.394,1.071,2.394,2.394" fill="#BFBFBF"/>
   <path  d="M92.513,93.6c0,1.322,-1.071,2.395,-2.394,2.395c-1.321,0,-2.394,-1.072,-2.394,-2.395l0,0" fill="#E6E6E6"/>
   <circle  fill="#383838" r="1.197" cx="90.12" cy="93.6"/>
  </g>
  <g  id="F13pin">
   <path  d="M94.926,64.8c0,-1.321,1.071,-2.394,2.394,-2.394s2.394,1.072,2.394,2.394" fill="#BFBFBF"/>
   <path  d="M99.713,64.8c0,1.322,-1.071,2.394,-2.394,2.394s-2.394,-1.071,-2.394,-2.394" fill="#E6E6E6"/>
   <circle  fill="#383838" r="1.196" cx="97.32" cy="64.8"/>
  </g>
  <g  id="G13pin">
   <path  d="M94.926,72c0,-1.322,1.071,-2.394,2.394,-2.394s2.394,1.071,2.394,2.394" fill="#BFBFBF"/>
   <path  d="M99.713,72c0,1.322,-1.071,2.394,-2.394,2.394S94.926,73.322,94.926,72" fill="#E6E6E6"/>
   <circle  fill="#383838" r="1.197" cx="97.32" cy="72"/>
  </g>
  <g  id="H13pin">
   <path  d="M94.926,79.2c0,-1.322,1.071,-2.394,2.394,-2.394s2.394,1.071,2.394,2.394" fill="#BFBFBF"/>
   <path  d="M99.713,79.2c0,1.321,-1.071,2.394,-2.394,2.394s-2.394,-1.072,-2.394,-2.394l0,0" fill="#E6E6E6"/>
   <circle  fill="#383838" r="1.197" cx="97.32" cy="79.2"/>
  </g>
  <g  id="I13pin">
   <path  d="M94.926,86.4c0,-1.322,1.071,-2.395,2.394,-2.395s2.394,1.072,2.394,2.395" fill="#BFBFBF"/>
   <path  d="M99.713,86.4c0,1.321,-1.071,2.393,-2.394,2.393s-2.394,-1.071,-2.394,-2.393" fill="#E6E6E6"/>
   <circle  fill="#383838" r="1.197" cx="97.32" cy="86.4"/>
  </g>
  <g  id="J13pin">
   <path  d="M94.926,93.6c0,-1.322,1.071,-2.394,2.394,-2.394s2.394,1.071,2.394,2.394" fill="#BFBFBF"/>
   <path  d="M99.713,93.6c0,1.322,-1.071,2.395,-2.394,2.395s-2.394,-1.072,-2.394,-2.395l0,0" fill="#E6E6E6"/>
   <circle  fill="#383838" r="1.197" cx="97.32" cy="93.6"/>
  </g>
  <g  id="F14pin">
   <path  d="M102.126,64.8c0,-1.321,1.071,-2.394,2.394,-2.394c1.321,0,2.394,1.072,2.394,2.394" fill="#BFBFBF"/>
   <path  d="M106.914,64.8c0,1.322,-1.072,2.394,-2.394,2.394c-1.322,0,-2.394,-1.071,-2.394,-2.394" fill="#E6E6E6"/>
   <circle  fill="#383838" r="1.196" cx="104.52" cy="64.8"/>
  </g>
  <g  id="G14pin">
   <path  d="M102.126,72c0,-1.322,1.071,-2.394,2.394,-2.394c1.321,0,2.394,1.071,2.394,2.394" fill="#BFBFBF"/>
   <path  d="M106.914,72c0,1.322,-1.072,2.394,-2.394,2.394c-1.322,0,-2.394,-1.071,-2.394,-2.394" fill="#E6E6E6"/>
   <circle  fill="#383838" r="1.197" cx="104.52" cy="72"/>
  </g>
  <g  id="H14pin">
   <path  d="M102.126,79.2c0,-1.322,1.071,-2.394,2.394,-2.394c1.321,0,2.394,1.071,2.394,2.394" fill="#BFBFBF"/>
   <path  d="M106.914,79.2c0,1.321,-1.072,2.394,-2.394,2.394c-1.322,0,-2.394,-1.072,-2.394,-2.394l0,0" fill="#E6E6E6"/>
   <circle  fill="#383838" r="1.197" cx="104.52" cy="79.2"/>
  </g>
  <g  id="I14pin">
   <path  d="M102.126,86.4c0,-1.322,1.071,-2.395,2.394,-2.395c1.321,0,2.394,1.072,2.394,2.395" fill="#BFBFBF"/>
   <path  d="M106.914,86.4c0,1.321,-1.072,2.393,-2.394,2.393c-1.322,0,-2.394,-1.071,-2.394,-2.393" fill="#E6E6E6"/>
   <circle  fill="#383838" r="1.197" cx="104.52" cy="86.4"/>
  </g>
  <g  id="J14pin">
   <path  d="M102.126,93.6c0,-1.322,1.071,-2.394,2.394,-2.394c1.321,0,2.394,1.071,2.394,2.394" fill="#BFBFBF"/>
   <path  d="M106.914,93.6c0,1.322,-1.072,2.395,-2.394,2.395c-1.322,0,-2.394,-1.072,-2.394,-2.395l0,0" fill="#E6E6E6"/>
   <circle  fill="#383838" r="1.197" cx="104.52" cy="93.6"/>
  </g>
  <g  id="F15pin">
   <path  d="M109.326,64.8c0.002,-1.321,1.076,-2.392,2.398,-2.39c1.318,0.002,2.387,1.07,2.389,2.39" fill="#BFBFBF"/>
   <path  d="M114.113,64.8c0.002,1.322,-1.067,2.396,-2.389,2.397c-1.322,0.002,-2.396,-1.068,-2.398,-2.391c0,-0.002,0,-0.004,0,-0.007" fill="#E6E6E6"/>
   <circle  fill="#383838" r="1.196" cx="111.72" cy="64.8"/>
  </g>
  <g  id="G15pin">
   <path  d="M109.326,72c0.002,-1.322,1.076,-2.393,2.398,-2.391c1.318,0.002,2.387,1.071,2.389,2.391" fill="#BFBFBF"/>
   <path  d="M114.113,72c0.002,1.322,-1.067,2.395,-2.389,2.396c-1.322,0.002,-2.396,-1.067,-2.398,-2.39c0,-0.002,0,-0.005,0,-0.007" fill="#E6E6E6"/>
   <circle  fill="#383838" r="1.197" cx="111.72" cy="72"/>
  </g>
  <g  id="H15pin">
   <path  d="M109.326,79.2c0.002,-1.322,1.076,-2.392,2.398,-2.39c1.318,0.002,2.387,1.07,2.389,2.39" fill="#BFBFBF"/>
   <path  d="M114.113,79.2c0.002,1.321,-1.067,2.396,-2.389,2.397c-1.322,0.002,-2.396,-1.068,-2.398,-2.391c0,-0.002,0,-0.005,0,-0.007" fill="#E6E6E6"/>
   <circle  fill="#383838" r="1.197" cx="111.72" cy="79.2"/>
  </g>
  <g  id="I15pin">
   <path  d="M109.326,86.4c0.002,-1.322,1.076,-2.393,2.398,-2.391c1.318,0.002,2.387,1.07,2.389,2.391" fill="#BFBFBF"/>
   <path  d="M114.113,86.4c0.002,1.321,-1.067,2.395,-2.389,2.396c-1.322,0.002,-2.396,-1.068,-2.398,-2.39c0,-0.003,0,-0.005,0,-0.007" fill="#E6E6E6"/>
   <circle  fill="#383838" r="1.197" cx="111.72" cy="86.4"/>
  </g>
  <g  id="J15pin">
   <path  d="M109.326,93.6c0.002,-1.322,1.076,-2.392,2.398,-2.39c1.318,0.002,2.387,1.071,2.389,2.39" fill="#BFBFBF"/>
   <path  d="M114.113,93.6c0.002,1.322,-1.067,2.396,-2.389,2.397c-1.322,0.002,-2.396,-1.067,-2.398,-2.39c0,-0.003,0,-0.005,0,-0.008" fill="#E6E6E6"/>
   <circle  fill="#383838" r="1.197" cx="111.72" cy="93.6"/>
  </g>
  <g  id="F16pin">
   <path  d="M116.527,64.8c0.002,-1.321,1.074,-2.392,2.396,-2.39c1.319,0.002,2.389,1.07,2.391,2.39" fill="#BFBFBF"/>
   <path  d="M121.314,64.8c0.002,1.322,-1.068,2.396,-2.391,2.397s-2.395,-1.068,-2.396,-2.391c0,-0.002,0,-0.004,0,-0.007" fill="#E6E6E6"/>
   <circle  fill="#383838" r="1.196" cx="118.919" cy="64.8"/>
  </g>
  <g  id="G16pin">
   <path  d="M116.527,72c0.002,-1.322,1.074,-2.393,2.396,-2.391c1.319,0.002,2.389,1.071,2.391,2.391" fill="#BFBFBF"/>
   <path  d="M121.314,72c0.002,1.322,-1.068,2.395,-2.391,2.396s-2.395,-1.067,-2.396,-2.39c0,-0.002,0,-0.005,0,-0.007" fill="#E6E6E6"/>
   <circle  fill="#383838" r="1.197" cx="118.919" cy="72"/>
  </g>
  <g  id="H16pin">
   <path  d="M116.527,79.2c0.002,-1.322,1.074,-2.392,2.396,-2.39c1.319,0.002,2.389,1.07,2.391,2.39" fill="#BFBFBF"/>
   <path  d="M121.314,79.2c0.002,1.321,-1.068,2.396,-2.391,2.397s-2.395,-1.068,-2.396,-2.391c0,-0.002,0,-0.005,0,-0.007" fill="#E6E6E6"/>
   <circle  fill="#383838" r="1.197" cx="118.919" cy="79.2"/>
  </g>
  <g  id="I16pin">
   <path  d="M116.527,86.4c0.002,-1.322,1.074,-2.393,2.396,-2.391c1.319,0.002,2.389,1.07,2.391,2.391" fill="#BFBFBF"/>
   <path  d="M121.314,86.4c0.002,1.321,-1.068,2.395,-2.391,2.396s-2.395,-1.068,-2.396,-2.39c0,-0.003,0,-0.005,0,-0.007" fill="#E6E6E6"/>
   <circle  fill="#383838" r="1.197" cx="118.919" cy="86.4"/>
  </g>
  <g  id="J16pin">
   <path  d="M116.527,93.6c0.002,-1.322,1.074,-2.392,2.396,-2.39c1.319,0.002,2.389,1.071,2.391,2.39" fill="#BFBFBF"/>
   <path  d="M121.314,93.6c0.002,1.322,-1.068,2.396,-2.391,2.397s-2.395,-1.067,-2.396,-2.39c0,-0.003,0,-0.005,0,-0.008" fill="#E6E6E6"/>
   <circle  fill="#383838" r="1.197" cx="118.919" cy="93.6"/>
  </g>
  <g  id="F17pin">
   <path  d="M123.726,64.8c0.002,-1.321,1.075,-2.392,2.397,-2.39c1.319,0.002,2.388,1.07,2.39,2.39" fill="#BFBFBF"/>
   <path  d="M128.513,64.8c0.002,1.322,-1.068,2.396,-2.39,2.397c-1.322,0.002,-2.396,-1.068,-2.397,-2.391c0,-0.002,0,-0.004,0,-0.007" fill="#E6E6E6"/>
   <circle  fill="#383838" r="1.196" cx="126.12" cy="64.8"/>
  </g>
  <g  id="G17pin">
   <path  d="M123.726,72c0.002,-1.322,1.075,-2.393,2.397,-2.391c1.319,0.002,2.388,1.071,2.39,2.391" fill="#BFBFBF"/>
   <path  d="M128.513,72c0.002,1.322,-1.068,2.395,-2.39,2.396c-1.322,0.002,-2.396,-1.067,-2.397,-2.39c0,-0.002,0,-0.005,0,-0.007" fill="#E6E6E6"/>
   <circle  fill="#383838" r="1.197" cx="126.12" cy="72"/>
  </g>
  <g  id="H17pin">
   <path  d="M123.726,79.2c0.002,-1.322,1.075,-2.392,2.397,-2.39c1.319,0.002,2.388,1.07,2.39,2.39" fill="#BFBFBF"/>
   <path  d="M128.513,79.2c0.002,1.321,-1.068,2.396,-2.39,2.397c-1.322,0.002,-2.396,-1.068,-2.397,-2.391c0,-0.002,0,-0.005,0,-0.007" fill="#E6E6E6"/>
   <circle  fill="#383838" r="1.197" cx="126.12" cy="79.2"/>
  </g>
  <g  id="I17pin">
   <path  d="M123.726,86.4c0.002,-1.322,1.075,-2.393,2.397,-2.391c1.319,0.002,2.388,1.07,2.39,2.391" fill="#BFBFBF"/>
   <path  d="M128.513,86.4c0.002,1.321,-1.068,2.395,-2.39,2.396c-1.322,0.002,-2.396,-1.068,-2.397,-2.39c0,-0.003,0,-0.005,0,-0.007" fill="#E6E6E6"/>
   <circle  fill="#383838" r="1.197" cx="126.12" cy="86.4"/>
  </g>
  <g  id="J17pin">
   <path  d="M123.726,93.6c0.002,-1.322,1.075,-2.392,2.397,-2.39c1.319,0.002,2.388,1.071,2.39,2.39" fill="#BFBFBF"/>
   <path  d="M128.513,93.6c0.002,1.322,-1.068,2.396,-2.39,2.397c-1.322,0.002,-2.396,-1.067,-2.397,-2.39c0,-0.003,0,-0.005,0,-0.008" fill="#E6E6E6"/>
   <circle  fill="#383838" r="1.197" cx="126.12" cy="93.6"/>
  </g>
  <g  id="F18pin">
   <path  d="M130.926,64.8c0.002,-1.321,1.075,-2.392,2.397,-2.39c1.318,0.002,2.388,1.07,2.39,2.39" fill="#BFBFBF"/>
   <path  d="M135.713,64.8c0.002,1.322,-1.067,2.396,-2.39,2.397s-2.396,-1.068,-2.397,-2.391c0,-0.002,0,-0.004,0,-0.007" fill="#E6E6E6"/>
   <circle  fill="#383838" r="1.196" cx="133.32" cy="64.8"/>
  </g>
  <g  id="G18pin">
   <path  d="M130.926,72c0.002,-1.322,1.075,-2.393,2.397,-2.391c1.318,0.002,2.388,1.071,2.39,2.391" fill="#BFBFBF"/>
   <path  d="M135.713,72c0.002,1.322,-1.067,2.395,-2.39,2.396s-2.396,-1.067,-2.397,-2.39c0,-0.002,0,-0.005,0,-0.007" fill="#E6E6E6"/>
   <circle  fill="#383838" r="1.197" cx="133.32" cy="72"/>
  </g>
  <g  id="H18pin">
   <path  d="M130.926,79.2c0.002,-1.322,1.075,-2.392,2.397,-2.39c1.318,0.002,2.388,1.07,2.39,2.39" fill="#BFBFBF"/>
   <path  d="M135.713,79.2c0.002,1.321,-1.067,2.396,-2.39,2.397s-2.396,-1.068,-2.397,-2.391c0,-0.002,0,-0.005,0,-0.007" fill="#E6E6E6"/>
   <circle  fill="#383838" r="1.197" cx="133.32" cy="79.2"/>
  </g>
  <g  id="I18pin">
   <path  d="M130.926,86.4c0.002,-1.322,1.075,-2.393,2.397,-2.391c1.318,0.002,2.388,1.07,2.39,2.391" fill="#BFBFBF"/>
   <path  d="M135.713,86.4c0.002,1.321,-1.067,2.395,-2.39,2.396s-2.396,-1.068,-2.397,-2.39c0,-0.003,0,-0.005,0,-0.007" fill="#E6E6E6"/>
   <circle  fill="#383838" r="1.197" cx="133.32" cy="86.4"/>
  </g>
  <g  id="J18pin">
   <path  d="M130.926,93.6c0.002,-1.322,1.075,-2.392,2.397,-2.39c1.318,0.002,2.388,1.071,2.39,2.39" fill="#BFBFBF"/>
   <path  d="M135.713,93.6c0.002,1.322,-1.067,2.396,-2.39,2.397s-2.396,-1.067,-2.397,-2.39c0,-0.003,0,-0.005,0,-0.008" fill="#E6E6E6"/>
   <circle  fill="#383838" r="1.197" cx="133.32" cy="93.6"/>
  </g>
  <g  id="F19pin">
   <path  d="M138.126,64.8c0.002,-1.321,1.075,-2.392,2.396,-2.39c1.319,0.002,2.389,1.07,2.391,2.39" fill="#BFBFBF"/>
   <path  d="M142.914,64.8c0.002,1.322,-1.068,2.396,-2.391,2.397c-1.321,0.002,-2.395,-1.068,-2.396,-2.391c0,-0.002,0,-0.004,0,-0.007" fill="#E6E6E6"/>
   <circle  fill="#383838" r="1.196" cx="140.52" cy="64.8"/>
  </g>
  <g  id="G19pin">
   <path  d="M138.126,72c0.002,-1.322,1.075,-2.393,2.396,-2.391c1.319,0.002,2.389,1.071,2.391,2.391" fill="#BFBFBF"/>
   <path  d="M142.914,72c0.002,1.322,-1.068,2.395,-2.391,2.396c-1.321,0.002,-2.395,-1.067,-2.396,-2.39c0,-0.002,0,-0.005,0,-0.007" fill="#E6E6E6"/>
   <circle  fill="#383838" r="1.197" cx="140.52" cy="72"/>
  </g>
  <g  id="H19pin">
   <path  d="M138.126,79.2c0.002,-1.322,1.075,-2.392,2.396,-2.39c1.319,0.002,2.389,1.07,2.391,2.39" fill="#BFBFBF"/>
   <path  d="M142.914,79.2c0.002,1.321,-1.068,2.396,-2.391,2.397c-1.321,0.002,-2.395,-1.068,-2.396,-2.391c0,-0.002,0,-0.005,0,-0.007" fill="#E6E6E6"/>
   <circle  fill="#383838" r="1.197" cx="140.52" cy="79.2"/>
  </g>
  <g  id="I19pin">
   <path  d="M138.126,86.4c0.002,-1.322,1.075,-2.393,2.396,-2.391c1.319,0.002,2.389,1.07,2.391,2.391" fill="#BFBFBF"/>
   <path  d="M142.914,86.4c0.002,1.321,-1.068,2.395,-2.391,2.396c-1.321,0.002,-2.395,-1.068,-2.396,-2.39c0,-0.003,0,-0.005,0,-0.007" fill="#E6E6E6"/>
   <circle  fill="#383838" r="1.197" cx="140.52" cy="86.4"/>
  </g>
  <g  id="J19pin">
   <path  d="M138.126,93.6c0.002,-1.322,1.075,-2.392,2.396,-2.39c1.319,0.002,2.389,1.071,2.391,2.39" fill="#BFBFBF"/>
   <path  d="M142.914,93.6c0.002,1.322,-1.068,2.396,-2.391,2.397c-1.321,0.002,-2.395,-1.067,-2.396,-2.39c0,-0.003,0,-0.005,0,-0.008" fill="#E6E6E6"/>
   <circle  fill="#383838" r="1.197" cx="140.52" cy="93.6"/>
  </g>
  <g  id="F20pin">
   <path  d="M145.326,64.8c0.002,-1.321,1.076,-2.392,2.397,-2.39c1.319,0.002,2.388,1.07,2.39,2.39" fill="#BFBFBF"/>
   <path  d="M150.113,64.8c0.002,1.322,-1.067,2.396,-2.39,2.397c-1.321,0.002,-2.396,-1.068,-2.397,-2.391c0,-0.002,0,-0.004,0,-0.007" fill="#E6E6E6"/>
   <circle  fill="#383838" r="1.196" cx="147.72" cy="64.8"/>
  </g>
  <g  id="G20pin">
   <path  d="M145.326,72c0.002,-1.322,1.076,-2.393,2.397,-2.391c1.319,0.002,2.388,1.071,2.39,2.391" fill="#BFBFBF"/>
   <path  d="M150.113,72c0.002,1.322,-1.067,2.395,-2.39,2.396c-1.321,0.002,-2.396,-1.067,-2.397,-2.39c0,-0.002,0,-0.005,0,-0.007" fill="#E6E6E6"/>
   <circle  fill="#383838" r="1.197" cx="147.72" cy="72"/>
  </g>
  <g  id="H20pin">
   <path  d="M145.326,79.2c0.002,-1.322,1.076,-2.392,2.397,-2.39c1.319,0.002,2.388,1.07,2.39,2.39" fill="#BFBFBF"/>
   <path  d="M150.113,79.2c0.002,1.321,-1.067,2.396,-2.39,2.397c-1.321,0.002,-2.396,-1.068,-2.397,-2.391c0,-0.002,0,-0.005,0,-0.007" fill="#E6E6E6"/>
   <circle  fill="#383838" r="1.197" cx="147.72" cy="79.2"/>
  </g>
  <g  id="I20pin">
   <path  d="M145.326,86.4c0.002,-1.322,1.076,-2.393,2.397,-2.391c1.319,0.002,2.388,1.07,2.39,2.391" fill="#BFBFBF"/>
   <path  d="M150.113,86.4c0.002,1.321,-1.067,2.395,-2.39,2.396c-1.321,0.002,-2.396,-1.068,-2.397,-2.39c0,-0.003,0,-0.005,0,-0.007" fill="#E6E6E6"/>
   <circle  fill="#383838" r="1.197" cx="147.72" cy="86.4"/>
  </g>
  <g  id="J20pin">
   <path  d="M145.326,93.6c0.002,-1.322,1.076,-2.392,2.397,-2.39c1.319,0.002,2.388,1.071,2.39,2.39" fill="#BFBFBF"/>
   <path  d="M150.113,93.6c0.002,1.322,-1.067,2.396,-2.39,2.397c-1.321,0.002,-2.396,-1.067,-2.397,-2.39c0,-0.003,0,-0.005,0,-0.008" fill="#E6E6E6"/>
   <circle  fill="#383838" r="1.197" cx="147.72" cy="93.6"/>
  </g>
 </g>
</g>
</g></g><path stroke='#8c8c8c' stroke-width='2.0952' stroke-linecap='round' stroke-linejoin='round' fill='none' d='M25.3204,69.2705L25.3204,68.2229' />
<path stroke='#8c8c8c' stroke-width='2.0952' stroke-linecap='round' stroke-linejoin='round' fill='none' d='M25.3204,95.9803L25.3204,97.0279' />
<g partID='57510'><g transform='translate(21.688,98.0755)' ><g transform='matrix(0,-1,1,0,0,0)'  ><g xmlns="http://www.w3.org/2000/svg" id="breadboard">
 <rect xmlns="http://www.w3.org/2000/svg" id="connector0pin" width="0.72" x="0.36" y="2.5848" fill="none" height="0.72"/>
 <rect xmlns="http://www.w3.org/2000/svg" id="connector1pin" width="0.72" x="29.8202" y="2.5848" fill="none" height="0.72"/>
 <line xmlns="http://www.w3.org/2000/svg" id="connector0leg" x2="2.0952" y2="3.6324" stroke="#8C8C8C" stroke-width="2.0952" y1="3.6324" x1="1.0476" fill="none" stroke-linecap="round"/>
 <line xmlns="http://www.w3.org/2000/svg" id="connector1leg" x2="28.805" y2="3.6324" stroke="#8C8C8C" stroke-width="2.0952" y1="3.6324" x1="29.8526" fill="none" stroke-linecap="round"/>
 <path xmlns="http://www.w3.org/2000/svg" d="M1.0476,3.6324l28.3666,0" stroke="#8C8C8C" stroke-width="2.0952" fill="none"/>
 <path xmlns="http://www.w3.org/2000/svg" d="M10.2478,0.49536c-0.36,-0.1656,-0.9792,-0.2952,-1.3752,-0.2952l-1.9872,0c-0.396,0,-0.72,0.324,-0.72,0.72l0,5.35608c0,0.39672,0.324,0.72,0.72,0.72l1.9872,0c0.396,0,1.0152,-0.13608,1.3752,-0.2952l0.072,-0.03528c0.36,-0.1656,0.9792,-0.2952,1.3752,-0.2952l7.1856,0c0.39672,0,1.01448,0.13608,1.37448,0.2952l0.07272,0.03528c0.36,0.1656,0.97776,0.2952,1.3752,0.2952l1.9872,0c0.39744,0,0.72,-0.32328,0.72,-0.72L24.4102,0.92016c0,-0.396,-0.32256,-0.72,-0.72,-0.72l-1.9872,0c-0.39744,0,-1.0152,0.1368,-1.3752,0.2952l-0.07272,0.036c-0.36,0.1656,-0.97776,0.2952,-1.37448,0.2952l-7.1856,0c-0.396,0,-1.0152,-0.1368,-1.3752,-0.2952L10.2478,0.49536z" id="body" fill="#D9B477"/>
 <rect xmlns="http://www.w3.org/2000/svg" id="gold_band" width="0.70272" x="22.019" y="0.19368" fill="#ad9f4e" height="6.79536"/>
 <rect xmlns="http://www.w3.org/2000/svg" id="band_rd_multiplier" width="1.8504" x="16.1726" fill="#8a3d06" y="0.82656" height="5.5368"/>
 <rect xmlns="http://www.w3.org/2000/svg" id="band_2_nd" width="1.8504" x="12.4726" fill="#ff4d00" y="0.82656" height="5.5368"/>
 <path xmlns="http://www.w3.org/2000/svg" d="M10.6286,0.63936c-0.1152,-0.036,-0.2232,-0.072,-0.3096,-0.1152l-0.072,-0.036c-0.36,-0.16488,-0.9792,-0.2952,-1.3752,-0.2952l-0.0864,0l0,6.79608l0.0864,0c0.396,0,1.0152,-0.13608,1.3752,-0.2952l0.072,-0.03528c0.0864,-0.04464,0.1944,-0.07992,0.3096,-0.1152L10.6286,0.63936z" id="band_1_st" fill="#ff4d00"/>
 <path xmlns="http://www.w3.org/2000/svg" d="M23.711,4.0896L23.711,4.0896c0,0.37944,-0.13032,0.69912,-0.2952,0.69912l-1.9224,0c-0.38016,0,-0.97776,-0.05616,-1.33272,-0.1224L20.088,4.65048c-0.34488,-0.0648,-0.94896,-0.1224,-1.33344,-0.1224L11.808,4.52808c-0.3816,0,-0.9792,0.0576,-1.332,0.1224l-0.072,0.01512c-0.3456,0.06552,-0.9432,0.1224,-1.332,0.1224l-0.3168,0l-1.0008,0l-0.3096,0c-0.3816,0,-0.6984,0.29376,-0.6984,0.64512l0,0.24696L6.7464,5.8392l0,0.1728c0,0.36,0.3168,0.64512,0.6984,0.64512l1.62,0c0.3816,0,0.9792,-0.1224,1.332,-0.26712l0.072,-0.02808c0.3456,-0.14112,0.9504,-0.26496,1.332,-0.26496l6.94656,0c0.37944,0,0.97704,0.12384,1.33416,0.26568l0.07416,0.02808c0.34488,0.14472,0.94464,0.26712,1.33344,0.26712l2.2248,0c0.38088,0,0.69912,-0.2952,0.69912,-0.64512L24.413,5.472L24.413,4.49928L24.413,2.65536C24.1358,2.76336,23.711,3.06576,23.711,4.0896z" id="Shadow" opacity="0.3"/>
 <rect xmlns="http://www.w3.org/2000/svg" id="ShadowExtra" opacity="0.4" width="0.70272" x="22.019" y="3.48336" height="3.15288"/>
 <path xmlns="http://www.w3.org/2000/svg" d="M19.751,1.08576c0.22968,0,0.49104,-0.1008,0.6624,-0.1728c0.2016,-0.0792,0.57672,-0.144,0.96624,-0.144l1.46088,0c0.22464,0,0.22464,0.2448,0.22464,0.3744c0,0.1296,-0.01512,0.3816,-0.22464,0.3816l-3.06,0c-0.10728,0,-0.2304,-0.1152,-0.2304,-0.22392C19.5566,1.21536,19.6286,1.08576,19.751,1.08576z" id="ReflexRight" opacity="0.25" fill="#FFFFFF"/>
 <circle xmlns="http://www.w3.org/2000/svg" id="ReflexLeft" opacity="0.35" fill="#FFFFFF" r="0.432" cx="6.99984" cy="1.13616"/>
 <rect xmlns="http://www.w3.org/2000/svg" id="Reflex_gold" opacity="0.5" width="0.70272" x="22.019" y="0.42336" fill="#FFFF33" height="1.62"/>
 <rect xmlns="http://www.w3.org/2000/svg" id="Reflex_extra" opacity="0.5" width="0.70272" x="22.019" y="0.78336" fill="#FFFFFF" height="0.7488"/>
</g>
</g></g></g><path stroke='#8c8c8c' stroke-width='2.15136' stroke-linecap='round' stroke-linejoin='round' fill='none' d='M18.1204,29.2068L18.1204,53.8229' />
<path stroke='#8c8c8c' stroke-width='2.15136' stroke-linecap='round' stroke-linejoin='round' fill='none' d='M10.9182,29.2068L10.9182,53.8229' />
<g partID='67990'><g transform='translate(6.39157,0)' ><g xmlns="http://www.w3.org/2000/svg" id="breadboard">
 <rect xmlns="http://www.w3.org/2000/svg" id="connector0pin" width="2.15208" x="3.45096" y="25.421" fill="none" height="0.72"/>
 <rect xmlns="http://www.w3.org/2000/svg" id="connector1pin" width="2.15424" x="10.651" y="25.421" fill="none" height="0.72"/>
 <g xmlns="http://www.w3.org/2000/svg" id="connector0leg" x2="6.287" y2="74.754" stroke="#8C8C8C" stroke-width="2.15136" y1="40.565" x1="6.287" fill="none" stroke-linecap="round"/>
 <g xmlns="http://www.w3.org/2000/svg" id="connector1leg" x2="16.29" y2="74.754" stroke="#8C8C8C" stroke-width="2.15136" y1="40.565" x1="16.29" fill="none" stroke-linecap="round"/>
 <rect xmlns="http://www.w3.org/2000/svg" width="2.15136" x="3.45096" y="19.3795" fill="#8C8C8C" height="9.82728"/>
 <path xmlns="http://www.w3.org/2000/svg" d="M12.8045,29.2068c0,-1.1736,-1.06488,-2.1024,-2.088,-2.9916c-0.41616,-0.3672,-1.19952,-1.00152,-1.19952,-1.42488l0,-5.47056l-2.16144,0l0,5.78016c0,1.0584,0.94752,1.87848,1.94616,2.74824c0.44424,0.37584,1.34856,1.24992,1.34856,1.76976" fill="#8C8C8C"/>
 <g xmlns="http://www.w3.org/2000/svg" id="g12">
  <path xmlns="http://www.w3.org/2000/svg" d="M14.1732,13.001L14.1732,7.0884C14.1732,3.1752,11.0052,0,7.08768,0C3.1752,0,0,3.16944,0,7.0884l0,13.649c1.47384,1.65096,4.0968,2.75256,7.08768,2.75256c4.61952,0,8.36856,-2.61792,8.36856,-5.85936l0,-1.52352C15.4555,14.9645,14.9818,13.9032,14.1732,13.001z" id="color_path14" opacity="0.3" fill="#666666"/>
  <path xmlns="http://www.w3.org/2000/svg" d="M14.1732,13.001L14.1732,7.0884C14.1732,3.1752,11.0052,0,7.08768,0C3.1752,0,0,3.16944,0,7.0884l0,13.649c1.47384,1.65096,4.0968,2.75256,7.08768,2.75256c4.61952,0,8.36856,-2.61792,8.36856,-5.85936l0,-1.52352C15.4555,14.9645,14.9818,13.9032,14.1732,13.001z" id="path16" opacity="0.5" fill="#E6E6E6"/>
  <path xmlns="http://www.w3.org/2000/svg" d="M14.1732,13.001l0,3.10536c0,2.73888,-3.16584,4.96512,-7.08552,4.96512C3.1752,21.0715,0,18.8525,0,16.1064l0,3.10536L0,20.736c1.47384,1.65168,4.0968,2.75256,7.08768,2.75256c4.61952,0,8.36856,-2.61792,8.36856,-5.85864L15.4562,16.1064C15.4555,14.9645,14.9818,13.9032,14.1732,13.001z" id="path18" opacity="0.9" fill="#D1D1D1"/>
  <path xmlns="http://www.w3.org/2000/svg" d="M14.1732,13.001l0,3.10536c0,2.73888,-3.16584,4.96512,-7.08552,4.96512C3.1752,21.0715,0,18.8525,0,16.1064l0,3.10536L0,20.736c1.47384,1.65168,4.0968,2.75256,7.08768,2.75256c4.61952,0,8.36856,-2.61792,8.36856,-5.85864L15.4562,16.1064C15.4555,14.9645,14.9818,13.9032,14.1732,13.001z" id="color_path20" opacity="0.7" fill="#666666"/>
  <path xmlns="http://www.w3.org/2000/svg" d="M14.1732,13.001l0,3.10536c0,2.73888,-3.16584,4.96512,-7.08552,4.96512C3.1752,21.0715,0,18.8525,0,16.1064l0,3.10536c1.47384,1.65024,4.0968,2.75256,7.08768,2.75256c4.61952,0,8.36856,-2.61792,8.36856,-5.85864C15.4555,14.9645,14.9818,13.9032,14.1732,13.001z" id="color_path22" opacity="0.25" fill="#666666"/>
  <ellipse xmlns="http://www.w3.org/2000/svg" ry="4.9608" id="ellipse24" opacity="0.25" rx="7.08696" fill="#E6E6E6" cx="7.08768" cy="16.1064"/>
  <ellipse xmlns="http://www.w3.org/2000/svg" ry="4.9608" id="color_ellipse26" opacity="0.25" rx="7.08696" fill="#666666" cx="7.08768" cy="16.1064"/>
  <polygon xmlns="http://www.w3.org/2000/svg" points="2.2032,9.648,2.2032,16.1071,3.19608,16.1071,3.19608,13.0946,6.0156,13.0946,10.0123,8.80488,3.40704,8.80488" id="polygon28" fill="#666666"/>
  <polygon xmlns="http://www.w3.org/2000/svg" points="10.7784,8.52408,11.2147,9.03384,7.41168,13.0946,11.0599,13.0946,11.0599,16.1071,11.9736,16.1071,11.9736,8.52408" id="polygon30" fill="#666666"/>
  <path xmlns="http://www.w3.org/2000/svg" d="M14.1732,13.001L14.1732,7.0884C14.1732,3.1752,11.0052,0,7.08768,0C3.1752,0,0,3.16944,0,7.0884l0,13.649c1.47384,1.65096,4.0968,2.75256,7.08768,2.75256c4.61952,0,8.36856,-2.61792,8.36856,-5.85936l0,-1.52352C15.4555,14.9645,14.9818,13.9032,14.1732,13.001z" id="color_path32" opacity="0.65" fill="#666666"/>
  <path xmlns="http://www.w3.org/2000/svg" d="M10.3882,3.75408l1.4364,-0.2736c-0.84168,-1.13184,-2.08224,-1.95768,-3.54168,-2.23848l0.25416,1.08072C9.30096,2.59344,9.94392,3.1032,10.3882,3.75408z" id="path34" opacity="0.5" fill="#FFFFFF"/>
  <path xmlns="http://www.w3.org/2000/svg" d="M0.76824,19.926l0,1.51992c0.64872,0.5292,1.43352,0.97632,2.3076,1.31688l0,-1.52496C2.19744,20.9016,1.41912,20.4559,0.76824,19.926z" id="path36" opacity="0.5" fill="#FFFFFF"/>
  <path xmlns="http://www.w3.org/2000/svg" d="M11.0729,20.2097c-0.2556,0.1224,-0.52992,0.22968,-0.80568,0.32976c-0.05832,0.01944,-0.11736,0.04032,-0.17784,0.05832c-0.56376,0.17928,-1.16136,0.31896,-1.79496,0.39456c-0.07488,0.00936,-0.1512,0.01872,-0.22464,0.01944c-0.3204,0.03024,-0.64368,0.05832,-0.97056,0.05832c-0.14832,0,-0.30744,-0.01512,-0.4716,-0.02376c-1.20024,-0.05688,-2.33064,-0.31464,-3.2976,-0.73944L3.33,11.9174L3.33,7.092c0,-1.47096,0.84816,-2.72952,2.0736,-3.34944L5.38128,3.68928l-1.24776,-1.512c-1.66968,1.00296,-2.79,2.8224,-2.79,4.91184l0,11.9052c-0.04968,-0.04968,-0.30816,-0.30888,-0.48024,-0.52992l-0.30744,0.6876c1.40112,1.48176,3.8088,2.46168,6.54264,2.46168c1.67976,0,3.23712,-0.37368,4.51152,-1.00224l-0.52704,-0.40896C11.0729,20.2097,11.0729,20.2097,11.0729,20.2097z" id="path38" opacity="0.5" fill="#FFFFFF"/>
 </g>
</g>
</g></g><path stroke='#8c8c8c' stroke-width='2.15998' stroke-linecap='round' stroke-linejoin='round' fill='none' d='M25.3204,53.8449L25.3204,61.0229' />
<path stroke='#8c8c8c' stroke-width='2.15998' stroke-linecap='round' stroke-linejoin='round' fill='none' d='M32.5063,53.8449L32.5063,61.0229' />
<path stroke='#8c8c8c' stroke-width='2.15998' stroke-linecap='round' stroke-linejoin='round' fill='none' d='M18.1394,53.8449L18.1394,61.0229' />
<g partID='69270'><g transform='translate(17.0594,29.7639)' ><g xmlns="http://www.w3.org/2000/svg" id="breadboard">
 <rect xmlns="http://www.w3.org/2000/svg" id="connector0pin" width="2.15998" x="0" y="22.081" fill="none" height="1"/>
 <rect xmlns="http://www.w3.org/2000/svg" id="connector1pin" width="2.15998" x="7.18095" y="22.081" fill="none" height="1"/>
 <rect xmlns="http://www.w3.org/2000/svg" id="connector2pin" width="2.15998" x="14.3669" y="22.081" fill="none" height="1"/>
 <g xmlns="http://www.w3.org/2000/svg" id="connector0leg" x2="1.08" y2="31.259" stroke="#8C8C8C" stroke-width="2.15998" y1="24.081" x1="1.08" fill="none" stroke-linecap="round"/>
 <g xmlns="http://www.w3.org/2000/svg" id="connector1leg" x2="8.261" y2="31.259" stroke="#8C8C8C" stroke-width="2.15998" y1="24.081" x1="8.261" fill="none" stroke-linecap="round"/>
 <g xmlns="http://www.w3.org/2000/svg" id="connector2leg" x2="15.447" y2="31.259" stroke="#8C8C8C" stroke-width="2.15998" y1="24.081" x1="15.447" fill="none" stroke-linecap="round"/>
 <rect xmlns="http://www.w3.org/2000/svg" id="rect9506" width="2.15398" x="7.17795" y="14.731" fill="#8C8C8C" height="9.351"/>
 <path xmlns="http://www.w3.org/2000/svg" d="M3.28698,14.731l0,3.316c0,0.424,-0.781994,1.059,-1.19799,1.425c-1.02499,0.891,-2.08798,1.819,-2.08798,2.992l0,1.619l2.15398,0c0,0,0,-1,0,-1.21c0,-0.517,0.903993,-1.389,1.34999,-1.769c0.996993,-0.87,1.94499,-1.69,1.94499,-2.749l0,-3.625L3.28698,14.73L3.28698,14.731z" id="path9510" fill="#8C8C8C"/>
 <path xmlns="http://www.w3.org/2000/svg" d="M13.2209,14.731l0,3.316c0,0.424,0.780994,1.059,1.19899,1.425c1.02699,0.891,2.08898,1.819,2.08898,2.992l0,1.619l-2.15398,0c0,0,0,-1,0,-1.21c0,-0.517,-0.903993,-1.389,-1.34999,-1.769c-0.997993,-0.87,-1.94499,-1.69,-1.94499,-2.749l0,-3.625L13.2209,14.73L13.2209,14.731z" id="path9514" fill="#8C8C8C"/>
 <rect xmlns="http://www.w3.org/2000/svg" id="rect9553" width="13.2779" x="1.61499" y="4.659" fill="#1A1A1A" height="10.07"/>
 <path xmlns="http://www.w3.org/2000/svg" d="M13.8889,4.659l0,2.453l0,8.228l0,1.842c0.631995,-0.713,1.00399,-1.553,1.00399,-2.453l0,0L14.8929,4.659L13.8889,4.659z" id="path9555" fill="#141414"/>
 <path xmlns="http://www.w3.org/2000/svg" d="M2.62098,4.659L1.61599,4.659l0,10.07l0,0c0,0.899,0.372997,1.74,1.00499,2.453L2.62098,15.34L2.62098,7.112L2.62098,4.659z" id="path9557" fill="#242424"/>
 <path xmlns="http://www.w3.org/2000/svg" d="M1.61499,4.659L1.61499,4.659c0,0.899,0.372997,1.74,1.00499,2.453l11.2759,0c0.631995,-0.713,1.00499,-1.554,1.00499,-2.453l0,0L1.61499,4.659z" id="path9559" fill="#1F1F1F"/>
 <path xmlns="http://www.w3.org/2000/svg" d="M8.25494,0C4.58697,0,1.61499,2.086,1.61499,4.661l13.2779,0C14.8929,2.086,11.9229,0,8.25494,0z" id="path9561" fill="#141414"/>
 <rect xmlns="http://www.w3.org/2000/svg" id="rect9563" width="11.2759" x="2.62098" y="7.112" height="10.07"/>
 <path xmlns="http://www.w3.org/2000/svg" d="M4.98996,14.359l0,-5.4l2.15998,0l0,1.079l1.07999,0l0,1.08l1.08099,0L9.31093,8.958l2.15898,0l0,5.4L9.31193,14.358l0,-1.079L8.23094,13.279l0,-1.08l-1.07999,0l0,2.161L4.98996,14.36z" fill="#999999"/>
</g>
</g></g><path stroke='#8c8c8c' stroke-width='2.0952' stroke-linecap='round' stroke-linejoin='round' fill='none' d='M60.2728,46.6229L61.3204,46.6229' />
<path stroke='#8c8c8c' stroke-width='2.0952' stroke-linecap='round' stroke-linejoin='round' fill='none' d='M33.5629,46.6229L32.5153,46.6229' />
<g partID='69300'><g transform='translate(31.4677,42.9905)' ><g xmlns="http://www.w3.org/2000/svg" id="breadboard">
 <rect xmlns="http://www.w3.org/2000/svg" id="connector0pin" width="0.72" x="0.36" y="2.5848" fill="none" height="0.72"/>
 <rect xmlns="http://www.w3.org/2000/svg" id="connector1pin" width="0.72" x="29.8202" y="2.5848" fill="none" height="0.72"/>
 <line xmlns="http://www.w3.org/2000/svg" id="connector0leg" x2="2.0952" y2="3.6324" stroke="#8C8C8C" stroke-width="2.0952" y1="3.6324" x1="1.0476" fill="none" stroke-linecap="round"/>
 <line xmlns="http://www.w3.org/2000/svg" id="connector1leg" x2="28.805" y2="3.6324" stroke="#8C8C8C" stroke-width="2.0952" y1="3.6324" x1="29.8526" fill="none" stroke-linecap="round"/>
 <path xmlns="http://www.w3.org/2000/svg" d="M1.0476,3.6324l28.3666,0" stroke="#8C8C8C" stroke-width="2.0952" fill="none"/>
 <path xmlns="http://www.w3.org/2000/svg" d="M10.2478,0.49536c-0.36,-0.1656,-0.9792,-0.2952,-1.3752,-0.2952l-1.9872,0c-0.396,0,-0.72,0.324,-0.72,0.72l0,5.35608c0,0.39672,0.324,0.72,0.72,0.72l1.9872,0c0.396,0,1.0152,-0.13608,1.3752,-0.2952l0.072,-0.03528c0.36,-0.1656,0.9792,-0.2952,1.3752,-0.2952l7.1856,0c0.39672,0,1.01448,0.13608,1.37448,0.2952l0.07272,0.03528c0.36,0.1656,0.97776,0.2952,1.3752,0.2952l1.9872,0c0.39744,0,0.72,-0.32328,0.72,-0.72L24.4102,0.92016c0,-0.396,-0.32256,-0.72,-0.72,-0.72l-1.9872,0c-0.39744,0,-1.0152,0.1368,-1.3752,0.2952l-0.07272,0.036c-0.36,0.1656,-0.97776,0.2952,-1.37448,0.2952l-7.1856,0c-0.396,0,-1.0152,-0.1368,-1.3752,-0.2952L10.2478,0.49536z" id="body" fill="#D9B477"/>
 <rect xmlns="http://www.w3.org/2000/svg" id="gold_band" width="0.70272" x="22.019" y="0.19368" fill="#ad9f4e" height="6.79536"/>
 <rect xmlns="http://www.w3.org/2000/svg" id="band_rd_multiplier" width="1.8504" x="16.1726" fill="#000000" y="0.82656" height="5.5368"/>
 <rect xmlns="http://www.w3.org/2000/svg" id="band_2_nd" width="1.8504" x="12.4726" fill="#0060b6" y="0.82656" height="5.5368"/>
 <path xmlns="http://www.w3.org/2000/svg" d="M10.6286,0.63936c-0.1152,-0.036,-0.2232,-0.072,-0.3096,-0.1152l-0.072,-0.036c-0.36,-0.16488,-0.9792,-0.2952,-1.3752,-0.2952l-0.0864,0l0,6.79608l0.0864,0c0.396,0,1.0152,-0.13608,1.3752,-0.2952l0.072,-0.03528c0.0864,-0.04464,0.1944,-0.07992,0.3096,-0.1152L10.6286,0.63936z" id="band_1_st" fill="#00a33d"/>
 <path xmlns="http://www.w3.org/2000/svg" d="M23.711,4.0896L23.711,4.0896c0,0.37944,-0.13032,0.69912,-0.2952,0.69912l-1.9224,0c-0.38016,0,-0.97776,-0.05616,-1.33272,-0.1224L20.088,4.65048c-0.34488,-0.0648,-0.94896,-0.1224,-1.33344,-0.1224L11.808,4.52808c-0.3816,0,-0.9792,0.0576,-1.332,0.1224l-0.072,0.01512c-0.3456,0.06552,-0.9432,0.1224,-1.332,0.1224l-0.3168,0l-1.0008,0l-0.3096,0c-0.3816,0,-0.6984,0.29376,-0.6984,0.64512l0,0.24696L6.7464,5.8392l0,0.1728c0,0.36,0.3168,0.64512,0.6984,0.64512l1.62,0c0.3816,0,0.9792,-0.1224,1.332,-0.26712l0.072,-0.02808c0.3456,-0.14112,0.9504,-0.26496,1.332,-0.26496l6.94656,0c0.37944,0,0.97704,0.12384,1.33416,0.26568l0.07416,0.02808c0.34488,0.14472,0.94464,0.26712,1.33344,0.26712l2.2248,0c0.38088,0,0.69912,-0.2952,0.69912,-0.64512L24.413,5.472L24.413,4.49928L24.413,2.65536C24.1358,2.76336,23.711,3.06576,23.711,4.0896z" id="Shadow" opacity="0.3"/>
 <rect xmlns="http://www.w3.org/2000/svg" id="ShadowExtra" opacity="0.4" width="0.70272" x="22.019" y="3.48336" height="3.15288"/>
 <path xmlns="http://www.w3.org/2000/svg" d="M19.751,1.08576c0.22968,0,0.49104,-0.1008,0.6624,-0.1728c0.2016,-0.0792,0.57672,-0.144,0.96624,-0.144l1.46088,0c0.22464,0,0.22464,0.2448,0.22464,0.3744c0,0.1296,-0.01512,0.3816,-0.22464,0.3816l-3.06,0c-0.10728,0,-0.2304,-0.1152,-0.2304,-0.22392C19.5566,1.21536,19.6286,1.08576,19.751,1.08576z" id="ReflexRight" opacity="0.25" fill="#FFFFFF"/>
 <circle xmlns="http://www.w3.org/2000/svg" id="ReflexLeft" opacity="0.35" fill="#FFFFFF" r="0.432" cx="6.99984" cy="1.13616"/>
 <rect xmlns="http://www.w3.org/2000/svg" id="Reflex_gold" opacity="0.5" width="0.70272" x="22.019" y="0.42336" fill="#FFFF33" height="1.62"/>
 <rect xmlns="http://www.w3.org/2000/svg" id="Reflex_extra" opacity="0.5" width="0.70272" x="22.019" y="0.78336" fill="#FFFFFF" height="0.7488"/>
</g>
</g></g><g partID='77540'><line stroke-linecap='round' stroke='#8c0000' x1='61.3194' y1='39.4229' x2='147.719' y2='39.4264' stroke-width='3.2' /><line stroke-linecap='round' stroke='#cc1414' x1='61.3194' y1='39.4229' x2='147.719' y2='39.4264' stroke-width='1.6' /></g><g partID='79310'><line stroke-linecap='round' stroke='#000000' x1='10.92' y1='111.422' x2='10.92' y2='68.2229' stroke-width='3.2' /><line stroke-linecap='round' stroke='#404040' x1='10.92' y1='111.422' x2='10.92' y2='68.2229' stroke-width='1.6' /></g><g partID='79380'><line stroke-linecap='round' stroke='#000000' x1='126.119' y1='118.626' x2='10.92' y2='118.623' stroke-width='3.2' /><line stroke-linecap='round' stroke='#404040' x1='126.119' y1='118.626' x2='10.92' y2='118.623' stroke-width='1.6' /></g><g partID='82210'><line stroke-linecap='round' stroke='#1b5bb3' x1='90.1194' y1='111.422' x2='25.3195' y2='111.422' stroke-width='3.2' /><line stroke-linecap='round' stroke='#418dd9' x1='90.1194' y1='111.422' x2='25.3195' y2='111.422' stroke-width='1.6' /></g></svg>